<svg width="524" height="298" viewBox="0 0 524 298" fill="none" xmlns="http://www.w3.org/2000/svg">
<g filter="url(#filter0_d_21_379)">
<rect x="72" y="24" width="380" height="154" rx="12" fill="white"/>
</g>
<rect opacity="0.12" x="84.5" y="36.5" width="355" height="129" rx="5.5" fill="white" stroke="#8A92B2"/>
<path d="M289.062 140.269H300.945" stroke="#141414" stroke-linecap="round" stroke-linejoin="round"/>
<path d="M297.961 142.873H297.968" stroke="#141414" stroke-linecap="round" stroke-linejoin="round"/>
<path d="M295.003 142.873H295.01" stroke="#141414" stroke-linecap="round" stroke-linejoin="round"/>
<path d="M292.039 142.873H292.046" stroke="#141414" stroke-linecap="round" stroke-linejoin="round"/>
<path d="M297.961 145.464H297.968" stroke="#141414" stroke-linecap="round" stroke-linejoin="round"/>
<path d="M295.003 145.464H295.01" stroke="#141414" stroke-linecap="round" stroke-linejoin="round"/>
<path d="M292.039 145.464H292.046" stroke="#141414" stroke-linecap="round" stroke-linejoin="round"/>
<path d="M297.696 135.333V137.527" stroke="#141414" stroke-linecap="round" stroke-linejoin="round"/>
<path d="M292.311 135.333V137.527" stroke="#141414" stroke-linecap="round" stroke-linejoin="round"/>
<path fill-rule="evenodd" clip-rule="evenodd" d="M297.826 136.386H292.181C290.223 136.386 289 137.477 289 139.482V145.515C289 147.551 290.223 148.667 292.181 148.667H297.819C299.783 148.667 301 147.57 301 145.565V139.482C301.006 137.477 299.789 136.386 297.826 136.386Z" stroke="#141414" stroke-linecap="round" stroke-linejoin="round"/>
<path d="M311.222 147.096H311.654C313.73 147.096 314.594 145.68 314.594 143.124V142.476C314.594 139.92 313.73 138.504 311.654 138.504H311.222C309.158 138.504 308.282 139.908 308.282 142.476V143.124C308.282 145.692 309.158 147.096 311.222 147.096ZM311.27 145.992C310.106 145.992 309.542 145.116 309.542 143.364V142.236C309.542 140.484 310.106 139.608 311.27 139.608H311.618C312.782 139.608 313.346 140.484 313.346 142.236V143.364C313.346 145.116 312.782 145.992 311.618 145.992H311.27ZM318.622 147.096C320.23 147.096 321.646 146.208 321.646 144.588C321.646 143.604 321.022 142.872 320.158 142.584C320.806 142.272 321.31 141.564 321.31 140.736C321.31 139.464 320.146 138.504 318.562 138.504C317.062 138.504 315.874 139.476 315.826 141.036H317.026C317.074 140.1 317.662 139.608 318.55 139.608C319.462 139.608 320.062 140.064 320.062 140.82C320.062 141.576 319.51 142.128 318.61 142.128H317.914V143.196H318.622C319.702 143.196 320.386 143.676 320.386 144.576C320.386 145.464 319.702 145.992 318.622 145.992C317.59 145.992 316.798 145.368 316.798 144.36H315.574C315.574 146.028 316.918 147.096 318.622 147.096ZM322.337 147.012H323.369L327.149 138.6H326.105L322.337 147.012ZM330.828 147.096H331.26C333.336 147.096 334.2 145.68 334.2 143.124V142.476C334.2 139.92 333.336 138.504 331.26 138.504H330.828C328.764 138.504 327.888 139.908 327.888 142.476V143.124C327.888 145.692 328.764 147.096 330.828 147.096ZM330.876 145.992C329.712 145.992 329.148 145.116 329.148 143.364V142.236C329.148 140.484 329.712 139.608 330.876 139.608H331.224C332.388 139.608 332.952 140.484 332.952 142.236V143.364C332.952 145.116 332.388 145.992 331.224 145.992H330.876ZM338.022 138.6H336.822C336.738 139.5 336.414 139.74 335.826 139.74H335.178V140.844H335.922C336.258 140.844 336.642 140.736 336.774 140.544V147H338.022V138.6ZM339.071 147.012H340.103L343.883 138.6H342.839L339.071 147.012ZM344.766 141.396H346.038C345.99 140.304 346.602 139.572 347.61 139.572C348.51 139.572 349.146 140.148 349.146 141.036C349.146 141.72 348.81 142.248 347.994 142.668L346.686 143.328C345.846 143.748 344.682 144.66 344.694 146.1V147H350.442V145.896H345.918C345.918 145.2 346.602 144.648 347.214 144.348L348.45 143.724C349.746 143.064 350.418 142.152 350.418 141.048C350.418 139.512 349.254 138.504 347.61 138.504C345.834 138.504 344.706 139.62 344.766 141.396ZM354.336 147.096H354.768C356.844 147.096 357.708 145.68 357.708 143.124V142.476C357.708 139.92 356.844 138.504 354.768 138.504H354.336C352.272 138.504 351.396 139.908 351.396 142.476V143.124C351.396 145.692 352.272 147.096 354.336 147.096ZM354.384 145.992C353.22 145.992 352.656 145.116 352.656 143.364V142.236C352.656 140.484 353.22 139.608 354.384 139.608H354.732C355.896 139.608 356.46 140.484 356.46 142.236V143.364C356.46 145.116 355.896 145.992 354.732 145.992H354.384ZM358.923 141.396H360.195C360.147 140.304 360.759 139.572 361.767 139.572C362.667 139.572 363.303 140.148 363.303 141.036C363.303 141.72 362.967 142.248 362.151 142.668L360.843 143.328C360.003 143.748 358.839 144.66 358.851 146.1V147H364.599V145.896H360.075C360.075 145.2 360.759 144.648 361.371 144.348L362.607 143.724C363.903 143.064 364.575 142.152 364.575 141.048C364.575 139.512 363.411 138.504 361.767 138.504C359.991 138.504 358.863 139.62 358.923 141.396ZM368.556 147.096C370.164 147.096 371.58 146.208 371.58 144.588C371.58 143.604 370.956 142.872 370.092 142.584C370.74 142.272 371.244 141.564 371.244 140.736C371.244 139.464 370.08 138.504 368.496 138.504C366.996 138.504 365.808 139.476 365.76 141.036H366.96C367.008 140.1 367.596 139.608 368.484 139.608C369.396 139.608 369.996 140.064 369.996 140.82C369.996 141.576 369.444 142.128 368.544 142.128H367.848V143.196H368.556C369.636 143.196 370.32 143.676 370.32 144.576C370.32 145.464 369.636 145.992 368.556 145.992C367.524 145.992 366.732 145.368 366.732 144.36H365.508C365.508 146.028 366.852 147.096 368.556 147.096ZM372.546 147.552V148.512H373.098C374.082 148.512 374.67 147.912 374.67 146.844V145.632H373.506V146.772C373.506 147.276 373.314 147.552 372.978 147.552H372.546ZM381.769 147.096H382.201C384.277 147.096 385.141 145.68 385.141 143.124V142.476C385.141 139.92 384.277 138.504 382.201 138.504H381.769C379.705 138.504 378.829 139.908 378.829 142.476V143.124C378.829 145.692 379.705 147.096 381.769 147.096ZM381.817 145.992C380.653 145.992 380.089 145.116 380.089 143.364V142.236C380.089 140.484 380.653 139.608 381.817 139.608H382.165C383.329 139.608 383.893 140.484 383.893 142.236V143.364C383.893 145.116 383.329 145.992 382.165 145.992H381.817ZM389.169 147.096C390.777 147.096 392.193 146.208 392.193 144.588C392.193 143.604 391.569 142.872 390.705 142.584C391.353 142.272 391.857 141.564 391.857 140.736C391.857 139.464 390.693 138.504 389.109 138.504C387.609 138.504 386.421 139.476 386.373 141.036H387.573C387.621 140.1 388.209 139.608 389.097 139.608C390.009 139.608 390.609 140.064 390.609 140.82C390.609 141.576 390.057 142.128 389.157 142.128H388.461V143.196H389.169C390.249 143.196 390.933 143.676 390.933 144.576C390.933 145.464 390.249 145.992 389.169 145.992C388.137 145.992 387.345 145.368 387.345 144.36H386.121C386.121 146.028 387.465 147.096 389.169 147.096ZM393.603 141.36V142.668H394.887V141.36H393.603ZM393.603 145.704V147H394.887V145.704H393.603ZM396.493 141.396H397.765C397.717 140.304 398.329 139.572 399.337 139.572C400.237 139.572 400.873 140.148 400.873 141.036C400.873 141.72 400.537 142.248 399.721 142.668L398.413 143.328C397.573 143.748 396.409 144.66 396.421 146.1V147H402.169V145.896H397.645C397.645 145.2 398.329 144.648 398.941 144.348L400.177 143.724C401.473 143.064 402.145 142.152 402.145 141.048C402.145 139.512 400.981 138.504 399.337 138.504C397.561 138.504 396.433 139.62 396.493 141.396ZM406.125 144.216C406.989 144.216 407.877 143.724 408.225 143.016C408.153 144.72 407.313 146.028 406.053 146.028C405.117 146.028 404.481 145.548 404.313 144.804H403.101C403.305 146.136 404.457 147.108 406.077 147.108C407.997 147.108 409.401 145.488 409.401 142.416C409.401 140.112 408.213 138.504 406.221 138.504C404.481 138.504 403.173 139.716 403.173 141.36C403.173 142.992 404.385 144.216 406.125 144.216ZM406.209 139.608C407.253 139.608 407.985 140.34 407.985 141.372C407.985 142.392 407.253 143.112 406.209 143.112C405.177 143.112 404.445 142.392 404.445 141.372C404.445 140.34 405.177 139.608 406.209 139.608ZM410.971 141.36V142.668H412.255V141.36H410.971ZM410.971 145.704V147H412.255V145.704H410.971ZM417.976 147H419.224V145.032H420.448V143.928H419.224V138.6H417.82L413.56 143.928V145.032H417.976V147ZM414.844 143.928L417.976 140.028V143.928H414.844ZM424.345 147.096C426.169 147.096 427.465 145.932 427.465 144.228C427.465 142.56 426.253 141.36 424.537 141.36C423.889 141.36 423.253 141.636 422.881 141.972L423.217 139.704H426.865V138.6H422.281L421.621 143.304H422.665C422.917 142.74 423.517 142.416 424.345 142.416C425.461 142.416 426.193 143.136 426.193 144.228C426.193 145.32 425.461 145.992 424.333 145.992C423.397 145.992 422.761 145.488 422.653 144.588H421.453C421.573 146.028 422.761 147.096 424.345 147.096Z" fill="#141414"/>
<rect x="96" y="130" width="83" height="24" rx="4" fill="url(#paint0_linear_21_379)"/>
<g clip-path="url(#clip0_21_379)">
<path d="M119.556 136.4H116.533C116.237 135.588 115.442 135 114.5 135C113.557 135 112.763 135.588 112.467 136.4H109.444C108.646 136.4 108 137.026 108 137.8V147.6C108 148.373 108.646 149 109.444 149H119.556C120.354 149 121 148.373 121 147.6V137.8C121 137.026 120.354 136.4 119.556 136.4ZM114.5 136.4C114.897 136.4 115.222 136.711 115.222 137.1C115.222 137.488 114.897 137.8 114.5 137.8C114.103 137.8 113.778 137.488 113.778 137.1C113.778 136.711 114.103 136.4 114.5 136.4ZM115.944 146.2H110.889V144.8H115.944V146.2ZM118.111 143.4H110.889V142H118.111V143.4ZM118.111 140.6H110.889V139.2H118.111V140.6Z" fill="white"/>
</g>
<path d="M131.352 144.648V145.2C131.352 145.464 131.196 145.62 130.932 145.62H128.532C129.012 145.104 129.396 144.36 129.396 143.664C129.396 143.568 129.384 143.472 129.372 143.388H131.484V142.164H128.892C128.736 141.84 128.604 141.516 128.604 141.108C128.604 140.316 129.12 139.872 129.804 139.872C130.476 139.872 131.004 140.244 131.064 141.036H132.636C132.528 139.524 131.46 138.504 129.804 138.504C128.148 138.504 127.032 139.476 127.032 141.024C127.032 141.444 127.152 141.816 127.308 142.164H126.408V143.388H127.788C127.8 143.484 127.812 143.568 127.812 143.664C127.812 144.468 127.512 145.176 126.684 145.704V147H131.412C132.396 147 132.936 146.472 132.936 145.488V144.648H131.352ZM137.115 147.096C138.771 147.096 140.211 146.16 140.211 144.54C140.211 143.604 139.647 142.872 138.807 142.572C139.431 142.248 139.863 141.564 139.863 140.76C139.863 139.512 138.663 138.504 137.043 138.504C135.519 138.504 134.211 139.488 134.187 141.12H135.687C135.711 140.28 136.251 139.872 137.007 139.872C137.799 139.872 138.327 140.268 138.327 140.916C138.327 141.552 137.847 142.008 137.091 142.008H136.347V143.328H137.115C138.039 143.328 138.639 143.76 138.639 144.504C138.639 145.26 138.039 145.716 137.115 145.716C136.239 145.716 135.531 145.236 135.531 144.348H133.995C133.995 146.052 135.387 147.096 137.115 147.096ZM144.154 147.096H144.634C146.722 147.096 147.682 145.656 147.682 143.088V142.512C147.682 139.944 146.722 138.504 144.634 138.504H144.154C142.066 138.504 141.118 139.944 141.118 142.512V143.088C141.118 145.656 142.066 147.096 144.154 147.096ZM144.226 145.716C143.278 145.716 142.702 144.984 142.702 143.508V142.092C142.702 140.604 143.278 139.872 144.226 139.872H144.562C145.51 139.872 146.098 140.604 146.098 142.092V143.508C146.098 144.984 145.51 145.716 144.562 145.716H144.226ZM151.903 147.096C153.667 147.096 155.023 146.112 155.023 144.54C155.023 143.556 154.447 142.824 153.595 142.476C154.219 142.116 154.675 141.504 154.675 140.76C154.675 139.44 153.535 138.504 151.903 138.504C150.271 138.504 149.131 139.44 149.131 140.76C149.131 141.504 149.587 142.116 150.199 142.476C149.383 142.824 148.771 143.556 148.771 144.54C148.771 146.112 150.139 147.096 151.903 147.096ZM151.903 141.852C151.111 141.852 150.619 141.456 150.619 140.82C150.619 140.184 151.111 139.788 151.903 139.788C152.683 139.788 153.199 140.184 153.199 140.82C153.199 141.456 152.683 141.852 151.903 141.852ZM151.903 145.728C150.955 145.728 150.319 145.272 150.319 144.504C150.319 143.748 150.955 143.268 151.903 143.268C152.863 143.268 153.463 143.748 153.463 144.504C153.463 145.272 152.863 145.728 151.903 145.728ZM156.442 145.44V147H158.038V145.44H156.442ZM162.531 144.204C163.299 144.204 164.139 143.784 164.487 143.196C164.415 144.66 163.647 145.776 162.519 145.776C161.703 145.776 161.115 145.332 160.983 144.708H159.495C159.675 146.052 160.839 147.096 162.567 147.096C164.571 147.096 165.963 145.44 165.963 142.5C165.963 140.208 164.799 138.504 162.699 138.504C160.947 138.504 159.591 139.74 159.591 141.372C159.591 142.98 160.767 144.204 162.531 144.204ZM162.675 139.872C163.563 139.872 164.187 140.496 164.187 141.372C164.187 142.236 163.563 142.836 162.675 142.836C161.787 142.836 161.187 142.236 161.187 141.372C161.187 140.496 161.787 139.872 162.675 139.872Z" fill="white"/>
<line opacity="0.08" x1="96" y1="117.5" x2="428" y2="117.5" stroke="#141414"/>
<path opacity="0.48" d="M97.036 85V75.2H98.226V83.922H103.126V85H97.036ZM107.43 85.112C105.344 85.112 103.846 83.586 103.846 81.472C103.846 79.344 105.344 77.832 107.43 77.832C109.53 77.832 111.028 79.344 111.028 81.472C111.028 83.586 109.53 85.112 107.43 85.112ZM107.43 84.104C108.886 84.104 109.88 83.012 109.88 81.472C109.88 79.932 108.886 78.84 107.43 78.84C105.988 78.84 104.994 79.932 104.994 81.472C104.994 83.012 105.988 84.104 107.43 84.104ZM116.403 78.938H115.423C113.995 78.938 113.589 80.226 113.589 81.892V85H112.469V77.944H113.589V79.372C113.883 78.406 114.471 77.944 115.507 77.944H116.403V78.938ZM122.448 82.732H123.582C123.344 84.174 122.098 85.112 120.348 85.112C118.262 85.112 116.862 83.446 116.862 81.43C116.862 79.358 118.15 77.832 120.222 77.832C122.28 77.832 123.512 79.26 123.512 81.136C123.512 81.29 123.498 81.528 123.484 81.626H117.968C118.052 83.082 119.018 84.118 120.348 84.118C121.496 84.118 122.224 83.614 122.448 82.732ZM120.222 78.784C119.032 78.784 118.234 79.484 118.024 80.73H122.364C122.28 79.54 121.482 78.784 120.222 78.784ZM125.02 85V77.944H126.14V79.302C126.406 78.448 127.19 77.832 128.268 77.832C129.43 77.832 130.34 78.364 130.592 79.33C130.858 78.49 131.796 77.832 132.874 77.832C134.4 77.832 135.324 78.854 135.324 80.562V85H134.204V80.856C134.204 79.652 133.602 78.826 132.608 78.826C131.432 78.826 130.732 79.652 130.732 80.856V85H129.612V80.856C129.612 79.652 129.01 78.826 128.03 78.826C126.84 78.826 126.14 79.652 126.14 80.856V85H125.02ZM140.426 75.046H141.714V76.614H140.426V75.046ZM140.51 85V77.944H141.63V85H140.51ZM143.533 87.856V77.944H144.653V79.106C145.087 78.336 145.997 77.832 147.005 77.832C149.189 77.832 150.393 79.414 150.393 81.472C150.393 83.53 149.161 85.112 146.977 85.112C145.983 85.112 145.073 84.622 144.653 83.866V87.856H143.533ZM146.893 84.104C148.307 84.104 149.231 83.068 149.231 81.472C149.231 79.876 148.307 78.84 146.893 78.84C145.479 78.84 144.555 79.876 144.555 81.472C144.555 83.068 145.479 84.104 146.893 84.104ZM154.212 85.112C152.574 85.112 151.51 84.202 151.398 82.732H152.476C152.574 83.642 153.19 84.132 154.212 84.132C155.094 84.132 155.682 83.642 155.682 83.068C155.682 80.968 151.58 82.858 151.58 79.806C151.58 78.616 152.588 77.832 154.072 77.832C155.626 77.832 156.676 78.686 156.76 79.988H155.668C155.57 79.092 154.688 78.784 154.044 78.784C153.218 78.784 152.672 79.176 152.672 79.792C152.672 81.696 156.802 79.806 156.802 83.04C156.802 84.3 155.766 85.112 154.212 85.112ZM164.414 77.944V85H163.294V83.642C162.93 84.622 162.062 85.112 160.97 85.112C159.374 85.112 158.338 83.978 158.338 82.256V77.944H159.458V82.074C159.458 83.278 160.158 84.09 161.222 84.09C162.44 84.09 163.294 83.124 163.294 81.752V77.944H164.414ZM166.268 85V77.944H167.388V79.302C167.654 78.448 168.438 77.832 169.516 77.832C170.678 77.832 171.588 78.364 171.84 79.33C172.106 78.49 173.044 77.832 174.122 77.832C175.648 77.832 176.572 78.854 176.572 80.562V85H175.452V80.856C175.452 79.652 174.85 78.826 173.856 78.826C172.68 78.826 171.98 79.652 171.98 80.856V85H170.86V80.856C170.86 79.652 170.258 78.826 169.278 78.826C168.088 78.826 167.388 79.652 167.388 80.856V85H166.268ZM184.754 85.112C182.556 85.112 181.352 83.53 181.352 81.472C181.352 79.414 182.556 77.832 184.754 77.832C185.748 77.832 186.672 78.336 187.092 79.092V75.046H188.212V85H187.092V83.838C186.672 84.608 185.748 85.112 184.754 85.112ZM184.852 84.104C186.266 84.104 187.19 83.068 187.19 81.472C187.19 79.876 186.266 78.84 184.852 78.84C183.438 78.84 182.5 79.876 182.5 81.472C182.5 83.068 183.438 84.104 184.852 84.104ZM193.29 85.112C191.204 85.112 189.706 83.586 189.706 81.472C189.706 79.344 191.204 77.832 193.29 77.832C195.39 77.832 196.888 79.344 196.888 81.472C196.888 83.586 195.39 85.112 193.29 85.112ZM193.29 84.104C194.746 84.104 195.74 83.012 195.74 81.472C195.74 79.932 194.746 78.84 193.29 78.84C191.848 78.84 190.854 79.932 190.854 81.472C190.854 83.012 191.848 84.104 193.29 84.104ZM198.384 85V75.046H199.504V85H198.384ZM204.582 85.112C202.496 85.112 200.998 83.586 200.998 81.472C200.998 79.344 202.496 77.832 204.582 77.832C206.682 77.832 208.18 79.344 208.18 81.472C208.18 83.586 206.682 85.112 204.582 85.112ZM204.582 84.104C206.038 84.104 207.032 83.012 207.032 81.472C207.032 79.932 206.038 78.84 204.582 78.84C203.14 78.84 202.146 79.932 202.146 81.472C202.146 83.012 203.14 84.104 204.582 84.104ZM213.555 78.938H212.575C211.147 78.938 210.741 80.226 210.741 81.892V85H209.621V77.944H210.741V79.372C211.035 78.406 211.623 77.944 212.659 77.944H213.555V78.938ZM220.534 85.112C218.896 85.112 217.832 84.202 217.72 82.732H218.798C218.896 83.642 219.512 84.132 220.534 84.132C221.416 84.132 222.004 83.642 222.004 83.068C222.004 80.968 217.902 82.858 217.902 79.806C217.902 78.616 218.91 77.832 220.394 77.832C221.948 77.832 222.998 78.686 223.082 79.988H221.99C221.892 79.092 221.01 78.784 220.366 78.784C219.54 78.784 218.994 79.176 218.994 79.792C218.994 81.696 223.124 79.806 223.124 83.04C223.124 84.3 222.088 85.112 220.534 85.112ZM224.576 75.046H225.864V76.614H224.576V75.046ZM224.66 85V77.944H225.78V85H224.66ZM228.397 75.69H229.517V77.944H231.687V78.938H229.517V82.76C229.517 83.544 229.965 84.006 230.651 84.006H231.687V85H230.609C229.265 85 228.397 84.16 228.397 82.788V78.938H226.927V77.944H228.397V75.69ZM238.97 77.832C240.804 77.832 241.952 78.882 241.952 80.45V85H240.832V83.782C240.454 84.594 239.516 85.112 238.424 85.112C236.94 85.112 235.974 84.272 235.974 82.984C235.974 81.64 237.08 80.786 238.788 80.786H240.384C240.692 80.786 240.832 80.632 240.832 80.408C240.832 79.442 240.146 78.784 238.942 78.784C237.906 78.784 237.094 79.428 237.038 80.198H235.974C236.1 78.84 237.388 77.832 238.97 77.832ZM238.592 84.16C240.006 84.16 240.832 83.278 240.832 81.822V81.64H238.858C237.808 81.64 237.122 82.144 237.122 82.97C237.122 83.698 237.696 84.16 238.592 84.16ZM243.61 85V77.944H244.73V79.302C244.996 78.448 245.78 77.832 246.858 77.832C248.02 77.832 248.93 78.364 249.182 79.33C249.448 78.49 250.386 77.832 251.464 77.832C252.99 77.832 253.914 78.854 253.914 80.562V85H252.794V80.856C252.794 79.652 252.192 78.826 251.198 78.826C250.022 78.826 249.322 79.652 249.322 80.856V85H248.202V80.856C248.202 79.652 247.6 78.826 246.62 78.826C245.43 78.826 244.73 79.652 244.73 80.856V85H243.61ZM260.944 82.732H262.078C261.84 84.174 260.594 85.112 258.844 85.112C256.758 85.112 255.358 83.446 255.358 81.43C255.358 79.358 256.646 77.832 258.718 77.832C260.776 77.832 262.008 79.26 262.008 81.136C262.008 81.29 261.994 81.528 261.98 81.626H256.464C256.548 83.082 257.514 84.118 258.844 84.118C259.992 84.118 260.72 83.614 260.944 82.732ZM258.718 78.784C257.528 78.784 256.73 79.484 256.52 80.73H260.86C260.776 79.54 259.978 78.784 258.718 78.784ZM264.204 75.69H265.324V77.944H267.494V78.938H265.324V82.76C265.324 83.544 265.772 84.006 266.458 84.006H267.494V85H266.416C265.072 85 264.204 84.16 264.204 82.788V78.938H262.734V77.944H264.204V75.69ZM268.361 85.7H268.851C269.229 85.7 269.453 85.406 269.453 84.79V83.572H270.573V84.846C270.573 86.036 269.943 86.68 268.921 86.68H268.361V85.7ZM278.831 85.112C276.605 85.112 275.401 83.362 275.401 81.472C275.401 79.582 276.605 77.832 278.831 77.832C280.413 77.832 281.827 78.756 282.037 80.324H280.931C280.791 79.47 279.909 78.84 278.845 78.84C277.305 78.84 276.563 80.03 276.563 81.472C276.563 82.914 277.319 84.104 278.845 84.104C279.909 84.104 280.679 83.572 280.931 82.718H282.023C281.785 84.16 280.623 85.112 278.831 85.112ZM286.586 85.112C284.5 85.112 283.002 83.586 283.002 81.472C283.002 79.344 284.5 77.832 286.586 77.832C288.686 77.832 290.184 79.344 290.184 81.472C290.184 83.586 288.686 85.112 286.586 85.112ZM286.586 84.104C288.042 84.104 289.036 83.012 289.036 81.472C289.036 79.932 288.042 78.84 286.586 78.84C285.144 78.84 284.15 79.932 284.15 81.472C284.15 83.012 285.144 84.104 286.586 84.104ZM291.625 85V77.944H292.745V79.302C293.109 78.322 293.991 77.832 295.069 77.832C296.665 77.832 297.701 78.966 297.701 80.688V85H296.581V80.87C296.581 79.666 295.881 78.854 294.817 78.854C293.613 78.854 292.745 79.82 292.745 81.192V85H291.625ZM302.005 85.112C300.367 85.112 299.303 84.202 299.191 82.732H300.269C300.367 83.642 300.983 84.132 302.005 84.132C302.887 84.132 303.475 83.642 303.475 83.068C303.475 80.968 299.373 82.858 299.373 79.806C299.373 78.616 300.381 77.832 301.865 77.832C303.419 77.832 304.469 78.686 304.553 79.988H303.461C303.363 79.092 302.481 78.784 301.837 78.784C301.011 78.784 300.465 79.176 300.465 79.792C300.465 81.696 304.595 79.806 304.595 83.04C304.595 84.3 303.559 85.112 302.005 85.112ZM311.256 82.732H312.39C312.152 84.174 310.906 85.112 309.156 85.112C307.07 85.112 305.67 83.446 305.67 81.43C305.67 79.358 306.958 77.832 309.03 77.832C311.088 77.832 312.32 79.26 312.32 81.136C312.32 81.29 312.306 81.528 312.292 81.626H306.776C306.86 83.082 307.826 84.118 309.156 84.118C310.304 84.118 311.032 83.614 311.256 82.732ZM309.03 78.784C307.84 78.784 307.042 79.484 306.832 80.73H311.172C311.088 79.54 310.29 78.784 309.03 78.784ZM316.852 85.112C314.626 85.112 313.422 83.362 313.422 81.472C313.422 79.582 314.626 77.832 316.852 77.832C318.434 77.832 319.848 78.756 320.058 80.324H318.952C318.812 79.47 317.93 78.84 316.866 78.84C315.326 78.84 314.584 80.03 314.584 81.472C314.584 82.914 315.34 84.104 316.866 84.104C317.93 84.104 318.7 83.572 318.952 82.718H320.044C319.806 84.16 318.644 85.112 316.852 85.112ZM322.118 75.69H323.238V77.944H325.408V78.938H323.238V82.76C323.238 83.544 323.686 84.006 324.372 84.006H325.408V85H324.33C322.986 85 322.118 84.16 322.118 82.788V78.938H320.648V77.944H322.118V75.69ZM331.614 82.732H332.748C332.51 84.174 331.264 85.112 329.514 85.112C327.428 85.112 326.028 83.446 326.028 81.43C326.028 79.358 327.316 77.832 329.388 77.832C331.446 77.832 332.678 79.26 332.678 81.136C332.678 81.29 332.664 81.528 332.65 81.626H327.134C327.218 83.082 328.184 84.118 329.514 84.118C330.662 84.118 331.39 83.614 331.614 82.732ZM329.388 78.784C328.198 78.784 327.4 79.484 327.19 80.73H331.53C331.446 79.54 330.648 78.784 329.388 78.784ZM334.874 75.69H335.994V77.944H338.164V78.938H335.994V82.76C335.994 83.544 336.442 84.006 337.128 84.006H338.164V85H337.086C335.742 85 334.874 84.16 334.874 82.788V78.938H333.404V77.944H334.874V75.69ZM345.389 77.944V85H344.269V83.642C343.905 84.622 343.037 85.112 341.945 85.112C340.349 85.112 339.313 83.978 339.313 82.256V77.944H340.433V82.074C340.433 83.278 341.133 84.09 342.197 84.09C343.415 84.09 344.269 83.124 344.269 81.752V77.944H345.389ZM351.176 78.938H350.196C348.768 78.938 348.362 80.226 348.362 81.892V85H347.242V77.944H348.362V79.372C348.656 78.406 349.244 77.944 350.28 77.944H351.176V78.938ZM358.435 77.832C360.269 77.832 361.417 78.882 361.417 80.45V85H360.297V83.782C359.919 84.594 358.981 85.112 357.889 85.112C356.405 85.112 355.439 84.272 355.439 82.984C355.439 81.64 356.545 80.786 358.253 80.786H359.849C360.157 80.786 360.297 80.632 360.297 80.408C360.297 79.442 359.611 78.784 358.407 78.784C357.371 78.784 356.559 79.428 356.503 80.198H355.439C355.565 78.84 356.853 77.832 358.435 77.832ZM358.057 84.16C359.471 84.16 360.297 83.278 360.297 81.822V81.64H358.323C357.273 81.64 356.587 82.144 356.587 82.97C356.587 83.698 357.161 84.16 358.057 84.16ZM366.07 85.112C363.872 85.112 362.668 83.53 362.668 81.472C362.668 79.414 363.872 77.832 366.07 77.832C367.064 77.832 367.988 78.336 368.408 79.092V75.046H369.528V85H368.408V83.838C367.988 84.608 367.064 85.112 366.07 85.112ZM366.168 84.104C367.582 84.104 368.506 83.068 368.506 81.472C368.506 79.876 367.582 78.84 366.168 78.84C364.754 78.84 363.816 79.876 363.816 81.472C363.816 83.068 364.754 84.104 366.168 84.104ZM371.344 75.046H372.632V76.614H371.344V75.046ZM371.428 85V77.944H372.548V85H371.428ZM374.451 87.856V77.944H375.571V79.106C376.005 78.336 376.915 77.832 377.923 77.832C380.107 77.832 381.311 79.414 381.311 81.472C381.311 83.53 380.079 85.112 377.895 85.112C376.901 85.112 375.991 84.622 375.571 83.866V87.856H374.451ZM377.811 84.104C379.225 84.104 380.149 83.068 380.149 81.472C380.149 79.876 379.225 78.84 377.811 78.84C376.397 78.84 375.473 79.876 375.473 81.472C375.473 83.068 376.397 84.104 377.811 84.104ZM382.664 75.046H383.952V76.614H382.664V75.046ZM382.748 85V77.944H383.868V85H382.748ZM388.165 85.112C386.527 85.112 385.463 84.202 385.351 82.732H386.429C386.527 83.642 387.143 84.132 388.165 84.132C389.047 84.132 389.635 83.642 389.635 83.068C389.635 80.968 385.533 82.858 385.533 79.806C385.533 78.616 386.541 77.832 388.025 77.832C389.579 77.832 390.629 78.686 390.713 79.988H389.621C389.523 79.092 388.641 78.784 387.997 78.784C387.171 78.784 386.625 79.176 386.625 79.792C386.625 81.696 390.755 79.806 390.755 83.04C390.755 84.3 389.719 85.112 388.165 85.112ZM395.261 85.112C393.035 85.112 391.831 83.362 391.831 81.472C391.831 79.582 393.035 77.832 395.261 77.832C396.843 77.832 398.257 78.756 398.467 80.324H397.361C397.221 79.47 396.339 78.84 395.275 78.84C393.735 78.84 392.993 80.03 392.993 81.472C392.993 82.914 393.749 84.104 395.275 84.104C396.339 84.104 397.109 83.572 397.361 82.718H398.453C398.215 84.16 397.053 85.112 395.261 85.112ZM399.754 75.046H401.042V76.614H399.754V75.046ZM399.838 85V77.944H400.958V85H399.838ZM402.805 85V77.944H403.925V79.302C404.289 78.322 405.171 77.832 406.249 77.832C407.845 77.832 408.881 78.966 408.881 80.688V85H407.761V80.87C407.761 79.666 407.061 78.854 405.997 78.854C404.793 78.854 403.925 79.82 403.925 81.192V85H402.805ZM416.125 77.944H417.245V85.308C417.245 86.806 416.167 87.856 414.641 87.856H411.309V86.89H414.571C415.481 86.89 416.125 86.204 416.125 85.266V84.02C415.789 84.678 414.851 85.112 413.787 85.112C411.589 85.112 410.385 83.53 410.385 81.472C410.385 79.414 411.589 77.832 413.787 77.832C414.739 77.832 415.691 78.308 416.125 78.98V77.944ZM413.885 84.104C415.299 84.104 416.223 83.068 416.223 81.472C416.223 79.876 415.299 78.84 413.885 78.84C412.457 78.84 411.533 79.876 411.533 81.472C411.533 83.068 412.457 84.104 413.885 84.104ZM102.104 100.732H103.238C103 102.174 101.754 103.112 100.004 103.112C97.918 103.112 96.518 101.446 96.518 99.43C96.518 97.358 97.806 95.832 99.878 95.832C101.936 95.832 103.168 97.26 103.168 99.136C103.168 99.29 103.154 99.528 103.14 99.626H97.624C97.708 101.082 98.674 102.118 100.004 102.118C101.152 102.118 101.88 101.614 102.104 100.732ZM99.878 96.784C98.688 96.784 97.89 97.484 97.68 98.73H102.02C101.936 97.54 101.138 96.784 99.878 96.784ZM104.732 103V93.046H105.852V103H104.732ZM107.668 93.046H108.956V94.614H107.668V93.046ZM107.752 103V95.944H108.872V103H107.752ZM111.489 93.69H112.609V95.944H114.779V96.938H112.609V100.76C112.609 101.544 113.057 102.006 113.743 102.006H114.779V103H113.701C112.357 103 111.489 102.16 111.489 100.788V96.938H110.019V95.944H111.489V93.69ZM115.646 103.7H116.136C116.514 103.7 116.738 103.406 116.738 102.79V101.572H117.858V102.846C117.858 104.036 117.228 104.68 116.206 104.68H115.646V103.7ZM125.542 103.112C123.904 103.112 122.84 102.202 122.728 100.732H123.806C123.904 101.642 124.52 102.132 125.542 102.132C126.424 102.132 127.012 101.642 127.012 101.068C127.012 98.968 122.91 100.858 122.91 97.806C122.91 96.616 123.918 95.832 125.402 95.832C126.956 95.832 128.006 96.686 128.09 97.988H126.998C126.9 97.092 126.018 96.784 125.374 96.784C124.548 96.784 124.002 97.176 124.002 97.792C124.002 99.696 128.132 97.806 128.132 101.04C128.132 102.3 127.096 103.112 125.542 103.112ZM134.793 100.732H135.927C135.689 102.174 134.443 103.112 132.693 103.112C130.607 103.112 129.207 101.446 129.207 99.43C129.207 97.358 130.495 95.832 132.567 95.832C134.625 95.832 135.857 97.26 135.857 99.136C135.857 99.29 135.843 99.528 135.829 99.626H130.313C130.397 101.082 131.363 102.118 132.693 102.118C133.841 102.118 134.569 101.614 134.793 100.732ZM132.567 96.784C131.377 96.784 130.579 97.484 130.369 98.73H134.709C134.625 97.54 133.827 96.784 132.567 96.784ZM140.361 103.112C138.163 103.112 136.959 101.53 136.959 99.472C136.959 97.414 138.163 95.832 140.361 95.832C141.355 95.832 142.279 96.336 142.699 97.092V93.046H143.819V103H142.699V101.838C142.279 102.608 141.355 103.112 140.361 103.112ZM140.459 102.104C141.873 102.104 142.797 101.068 142.797 99.472C142.797 97.876 141.873 96.84 140.459 96.84C139.045 96.84 138.107 97.876 138.107 99.472C138.107 101.068 139.045 102.104 140.459 102.104ZM152.051 103.112C149.853 103.112 148.649 101.53 148.649 99.472C148.649 97.414 149.853 95.832 152.051 95.832C153.045 95.832 153.969 96.336 154.389 97.092V93.046H155.509V103H154.389V101.838C153.969 102.608 153.045 103.112 152.051 103.112ZM152.149 102.104C153.563 102.104 154.487 101.068 154.487 99.472C154.487 97.876 153.563 96.84 152.149 96.84C150.735 96.84 149.797 97.876 149.797 99.472C149.797 101.068 150.735 102.104 152.149 102.104ZM160.586 103.112C158.5 103.112 157.002 101.586 157.002 99.472C157.002 97.344 158.5 95.832 160.586 95.832C162.686 95.832 164.184 97.344 164.184 99.472C164.184 101.586 162.686 103.112 160.586 103.112ZM160.586 102.104C162.042 102.104 163.036 101.012 163.036 99.472C163.036 97.932 162.042 96.84 160.586 96.84C159.144 96.84 158.15 97.932 158.15 99.472C158.15 101.012 159.144 102.104 160.586 102.104ZM174.141 100.732H175.275C175.037 102.174 173.791 103.112 172.041 103.112C169.955 103.112 168.555 101.446 168.555 99.43C168.555 97.358 169.843 95.832 171.915 95.832C173.973 95.832 175.205 97.26 175.205 99.136C175.205 99.29 175.191 99.528 175.177 99.626H169.661C169.745 101.082 170.711 102.118 172.041 102.118C173.189 102.118 173.917 101.614 174.141 100.732ZM171.915 96.784C170.725 96.784 169.927 97.484 169.717 98.73H174.057C173.973 97.54 173.175 96.784 171.915 96.784ZM176.629 93.046H177.917V94.614H176.629V93.046ZM176.713 103V95.944H177.833V103H176.713ZM185.756 95.944V103H184.636V101.642C184.272 102.622 183.404 103.112 182.312 103.112C180.716 103.112 179.68 101.978 179.68 100.256V95.944H180.8V100.074C180.8 101.278 181.5 102.09 182.564 102.09C183.782 102.09 184.636 101.124 184.636 99.752V95.944H185.756ZM190.06 103.112C188.422 103.112 187.358 102.202 187.246 100.732H188.324C188.422 101.642 189.038 102.132 190.06 102.132C190.942 102.132 191.53 101.642 191.53 101.068C191.53 98.968 187.428 100.858 187.428 97.806C187.428 96.616 188.436 95.832 189.92 95.832C191.474 95.832 192.524 96.686 192.608 97.988H191.516C191.418 97.092 190.536 96.784 189.892 96.784C189.066 96.784 188.52 97.176 188.52 97.792C188.52 99.696 192.65 97.806 192.65 101.04C192.65 102.3 191.614 103.112 190.06 103.112ZM194.186 103V95.944H195.306V97.302C195.572 96.448 196.356 95.832 197.434 95.832C198.596 95.832 199.506 96.364 199.758 97.33C200.024 96.49 200.962 95.832 202.04 95.832C203.566 95.832 204.49 96.854 204.49 98.562V103H203.37V98.856C203.37 97.652 202.768 96.826 201.774 96.826C200.598 96.826 199.898 97.652 199.898 98.856V103H198.778V98.856C198.778 97.652 198.176 96.826 197.196 96.826C196.006 96.826 195.306 97.652 195.306 98.856V103H194.186ZM209.518 103.112C207.432 103.112 205.934 101.586 205.934 99.472C205.934 97.344 207.432 95.832 209.518 95.832C211.618 95.832 213.116 97.344 213.116 99.472C213.116 101.586 211.618 103.112 209.518 103.112ZM209.518 102.104C210.974 102.104 211.968 101.012 211.968 99.472C211.968 97.932 210.974 96.84 209.518 96.84C208.076 96.84 207.082 97.932 207.082 99.472C207.082 101.012 208.076 102.104 209.518 102.104ZM217.553 103.112C215.355 103.112 214.151 101.53 214.151 99.472C214.151 97.414 215.355 95.832 217.553 95.832C218.547 95.832 219.471 96.336 219.891 97.092V93.046H221.011V103H219.891V101.838C219.471 102.608 218.547 103.112 217.553 103.112ZM217.651 102.104C219.065 102.104 219.989 101.068 219.989 99.472C219.989 97.876 219.065 96.84 217.651 96.84C216.237 96.84 215.299 97.876 215.299 99.472C215.299 101.068 216.237 102.104 217.651 102.104Z" fill="#141414"/>
<path d="M100.784 62.128C98.256 62.128 96.64 60.608 96.512 58.288H98.128C98.256 59.728 99.2 60.656 100.784 60.656C102.192 60.656 103.216 60.112 103.216 58.896C103.216 56.208 96.864 57.824 96.864 53.696C96.864 51.904 98.432 50.672 100.688 50.672C102.976 50.672 104.544 52 104.688 54.048H103.072C102.96 52.896 102.064 52.144 100.688 52.144C99.344 52.144 98.528 52.752 98.528 53.696C98.528 56.416 104.912 54.608 104.912 58.88C104.912 60.928 103.184 62.128 100.784 62.128ZM113.597 53.936V62H112.045V60.576C111.613 61.584 110.653 62.128 109.453 62.128C107.629 62.128 106.445 60.816 106.445 58.896V53.936H107.997V58.592C107.997 59.872 108.749 60.736 109.885 60.736C111.149 60.736 112.045 59.712 112.045 58.304V53.936H113.597ZM119.746 62.128C118.674 62.128 117.682 61.6 117.218 60.8V62H115.666V50.56H117.218V55.12C117.682 54.336 118.658 53.808 119.762 53.808C122.226 53.808 123.618 55.568 123.618 57.968C123.618 60.368 122.226 62.128 119.746 62.128ZM119.57 60.768C121.058 60.768 122.05 59.648 122.05 57.968C122.05 56.288 121.058 55.168 119.57 55.168C118.066 55.168 117.09 56.288 117.09 57.968C117.09 59.648 118.066 60.768 119.57 60.768ZM127.902 62.128C126.014 62.128 124.75 61.072 124.638 59.376H126.094C126.19 60.304 126.862 60.832 127.902 60.832C128.83 60.832 129.422 60.336 129.422 59.744C129.422 57.6 124.846 59.568 124.846 56.128C124.846 54.736 126.03 53.808 127.71 53.808C129.534 53.808 130.782 54.816 130.862 56.336H129.406C129.294 55.408 128.398 55.04 127.71 55.04C126.878 55.04 126.318 55.456 126.318 56.08C126.318 58.08 130.926 56.032 130.926 59.712C130.926 61.184 129.726 62.128 127.902 62.128ZM136.028 62.128C133.484 62.128 132.028 60.192 132.028 57.968C132.028 55.744 133.484 53.808 136.028 53.808C137.916 53.808 139.548 54.928 139.772 56.752H138.22C138.076 55.84 137.148 55.168 136.06 55.168C134.444 55.168 133.644 56.416 133.644 57.968C133.644 59.52 134.46 60.768 136.06 60.768C137.164 60.768 137.98 60.192 138.236 59.28H139.772C139.516 60.976 138.076 62.128 136.028 62.128ZM145.914 55.28H144.746C143.274 55.28 142.794 56.592 142.794 58.352V62H141.242V53.936H142.794V55.488C143.162 54.416 143.802 53.936 144.938 53.936H145.914V55.28ZM147.099 50.56H148.827V52.512H147.099V50.56ZM147.195 62V53.936H148.747V62H147.195ZM150.791 65.264V53.936H152.343V55.136C152.823 54.336 153.799 53.808 154.919 53.808C157.351 53.808 158.743 55.568 158.743 57.968C158.743 60.368 157.287 62.128 154.839 62.128C153.767 62.128 152.807 61.632 152.343 60.864V65.264H150.791ZM154.695 60.768C156.183 60.768 157.175 59.648 157.175 57.968C157.175 56.288 156.183 55.168 154.695 55.168C153.191 55.168 152.215 56.288 152.215 57.968C152.215 59.648 153.191 60.768 154.695 60.768ZM161.076 51.408H162.628V53.936H165.012V55.28H162.628V59.312C162.628 60.176 163.092 60.656 163.876 60.656H165.012V62H163.748C162.116 62 161.076 61.008 161.076 59.36V55.28H159.428V53.936H161.076V51.408ZM166.24 50.56H167.968V52.512H166.24V50.56ZM166.336 62V53.936H167.888V62H166.336ZM173.547 62.128C171.131 62.128 169.387 60.384 169.387 57.968C169.387 55.552 171.131 53.808 173.547 53.808C175.963 53.808 177.691 55.552 177.691 57.968C177.691 60.384 175.963 62.128 173.547 62.128ZM173.547 60.768C175.067 60.768 176.107 59.616 176.107 57.968C176.107 56.32 175.067 55.168 173.547 55.168C172.011 55.168 170.971 56.32 170.971 57.968C170.971 59.616 172.011 60.768 173.547 60.768ZM179.211 62V53.936H180.763V55.36C181.195 54.352 182.155 53.808 183.355 53.808C185.179 53.808 186.363 55.12 186.363 57.04V62H184.811V57.344C184.811 56.064 184.059 55.2 182.923 55.2C181.659 55.2 180.763 56.224 180.763 57.632V62H179.211ZM194.871 62.128C192.983 62.128 191.719 61.072 191.607 59.376H193.063C193.159 60.304 193.831 60.832 194.871 60.832C195.799 60.832 196.391 60.336 196.391 59.744C196.391 57.6 191.815 59.568 191.815 56.128C191.815 54.736 192.999 53.808 194.679 53.808C196.503 53.808 197.751 54.816 197.831 56.336H196.375C196.263 55.408 195.367 55.04 194.679 55.04C193.847 55.04 193.287 55.456 193.287 56.08C193.287 58.08 197.895 56.032 197.895 59.712C197.895 61.184 196.695 62.128 194.871 62.128ZM206.66 53.936V62H205.108V60.576C204.676 61.584 203.716 62.128 202.516 62.128C200.692 62.128 199.508 60.816 199.508 58.896V53.936H201.06V58.592C201.06 59.872 201.812 60.736 202.948 60.736C204.212 60.736 205.108 59.712 205.108 58.304V53.936H206.66ZM212.184 62.128C209.64 62.128 208.184 60.192 208.184 57.968C208.184 55.744 209.64 53.808 212.184 53.808C214.072 53.808 215.704 54.928 215.928 56.752H214.376C214.232 55.84 213.304 55.168 212.216 55.168C210.6 55.168 209.8 56.416 209.8 57.968C209.8 59.52 210.616 60.768 212.216 60.768C213.32 60.768 214.136 60.192 214.392 59.28H215.928C215.672 60.976 214.232 62.128 212.184 62.128ZM220.934 62.128C218.39 62.128 216.934 60.192 216.934 57.968C216.934 55.744 218.39 53.808 220.934 53.808C222.822 53.808 224.454 54.928 224.678 56.752H223.126C222.982 55.84 222.054 55.168 220.966 55.168C219.35 55.168 218.55 56.416 218.55 57.968C218.55 59.52 219.366 60.768 220.966 60.768C222.07 60.768 222.886 60.192 223.142 59.28H224.678C224.422 60.976 222.982 62.128 220.934 62.128ZM231.908 59.376H233.46C233.172 61.04 231.716 62.128 229.732 62.128C227.236 62.128 225.684 60.16 225.684 57.92C225.684 55.664 227.092 53.808 229.572 53.808C232.068 53.808 233.396 55.584 233.396 57.632C233.396 57.84 233.38 58.096 233.364 58.24H227.204C227.332 59.76 228.324 60.8 229.732 60.8C230.916 60.8 231.684 60.288 231.908 59.376ZM229.572 55.056C228.308 55.056 227.492 55.76 227.252 57.104H231.828C231.732 55.872 230.9 55.056 229.572 55.056ZM237.73 62.128C235.842 62.128 234.578 61.072 234.466 59.376H235.922C236.018 60.304 236.69 60.832 237.73 60.832C238.658 60.832 239.25 60.336 239.25 59.744C239.25 57.6 234.674 59.568 234.674 56.128C234.674 54.736 235.858 53.808 237.538 53.808C239.362 53.808 240.61 54.816 240.69 56.336H239.234C239.122 55.408 238.226 55.04 237.538 55.04C236.706 55.04 236.146 55.456 236.146 56.08C236.146 58.08 240.754 56.032 240.754 59.712C240.754 61.184 239.554 62.128 237.73 62.128ZM245.199 62.128C243.311 62.128 242.047 61.072 241.935 59.376H243.391C243.487 60.304 244.159 60.832 245.199 60.832C246.127 60.832 246.719 60.336 246.719 59.744C246.719 57.6 242.143 59.568 242.143 56.128C242.143 54.736 243.327 53.808 245.007 53.808C246.831 53.808 248.079 54.816 248.159 56.336H246.703C246.591 55.408 245.695 55.04 245.007 55.04C244.175 55.04 243.615 55.456 243.615 56.08C243.615 58.08 248.223 56.032 248.223 59.712C248.223 61.184 247.023 62.128 245.199 62.128ZM250.608 62V55.28H248.96V53.936H250.608V53.152C250.608 51.568 251.648 50.56 253.264 50.56H254.592V51.904H253.376C252.64 51.904 252.16 52.4 252.16 53.2V53.936H254.592V55.28H252.16V62H250.608ZM262.894 53.936V62H261.342V60.576C260.91 61.584 259.95 62.128 258.75 62.128C256.926 62.128 255.742 60.816 255.742 58.896V53.936H257.294V58.592C257.294 59.872 258.046 60.736 259.182 60.736C260.446 60.736 261.342 59.712 261.342 58.304V53.936H262.894ZM264.963 62V50.56H266.515V62H264.963Z" fill="#141414"/>
<defs>
<filter id="filter0_d_21_379" x="0" y="0" width="524" height="298" filterUnits="userSpaceOnUse" color-interpolation-filters="sRGB">
<feFlood flood-opacity="0" result="BackgroundImageFix"/>
<feColorMatrix in="SourceAlpha" type="matrix" values="0 0 0 0 0 0 0 0 0 0 0 0 0 0 0 0 0 0 127 0" result="hardAlpha"/>
<feOffset dy="48"/>
<feGaussianBlur stdDeviation="36"/>
<feComposite in2="hardAlpha" operator="out"/>
<feColorMatrix type="matrix" values="0 0 0 0 0 0 0 0 0 0 0 0 0 0 0 0 0 0 0.24 0"/>
<feBlend mode="normal" in2="BackgroundImageFix" result="effect1_dropShadow_21_379"/>
<feBlend mode="normal" in="SourceGraphic" in2="effect1_dropShadow_21_379" result="shape"/>
</filter>
<linearGradient id="paint0_linear_21_379" x1="137.5" y1="130" x2="137.5" y2="154" gradientUnits="userSpaceOnUse">
<stop stop-color="#FAD000"/>
<stop offset="1" stop-color="#F58C00"/>
</linearGradient>
<clipPath id="clip0_21_379">
<rect width="14" height="14" fill="white" transform="translate(108 135)"/>
</clipPath>
</defs>
</svg>
