<svg width="60" height="60" viewBox="0 0 60 60" fill="none" xmlns="http://www.w3.org/2000/svg">
<g clip-path="url(#clip0_21_256)">
<path d="M35 47.5H25C24.337 47.5 23.7011 47.2366 23.2322 46.7678C22.7634 46.2989 22.5 45.663 22.5 45C22.5 44.337 22.7634 43.7011 23.2322 43.2322C23.7011 42.7634 24.337 42.5 25 42.5H35C35.663 42.5 36.2989 42.7634 36.7678 43.2322C37.2366 43.7011 37.5 44.337 37.5 45C37.5 45.663 37.2366 46.2989 36.7678 46.7678C36.2989 47.2366 35.663 47.5 35 47.5Z" fill="white"/>
<path d="M22.5 27.5C22.5 27.8315 22.3683 28.1495 22.1339 28.3839C21.8995 28.6183 21.5815 28.75 21.25 28.75C20.9185 28.75 20.6005 28.6183 20.3661 28.3839C20.1317 28.1495 20 27.8315 20 27.5C20 27.1685 20.1317 26.8505 20.3661 26.6161C20.6005 26.3817 20.9185 26.25 21.25 26.25C21.5815 26.25 21.8995 26.3817 22.1339 26.6161C22.3683 26.8505 22.5 27.1685 22.5 27.5ZM22.5 32.5C22.5 32.8315 22.3683 33.1495 22.1339 33.3839C21.8995 33.6183 21.5815 33.75 21.25 33.75C20.9185 33.75 20.6005 33.6183 20.3661 33.3839C20.1317 33.1495 20 32.8315 20 32.5C20 32.1685 20.1317 31.8505 20.3661 31.6161C20.6005 31.3817 20.9185 31.25 21.25 31.25C21.5815 31.25 21.8995 31.3817 22.1339 31.6161C22.3683 31.8505 22.5 32.1685 22.5 32.5ZM22.5 37.5C22.5 37.8315 22.3683 38.1495 22.1339 38.3839C21.8995 38.6183 21.5815 38.75 21.25 38.75C20.9185 38.75 20.6005 38.6183 20.3661 38.3839C20.1317 38.1495 20 37.8315 20 37.5C20 37.1685 20.1317 36.8505 20.3661 36.6161C20.6005 36.3817 20.9185 36.25 21.25 36.25C21.5815 36.25 21.8995 36.3817 22.1339 36.6161C22.3683 36.8505 22.5 37.1685 22.5 37.5ZM7.5 31.25C7.5 31.5815 7.3683 31.8995 7.13388 32.1339C6.89946 32.3683 6.58152 32.5 6.25 32.5C5.91848 32.5 5.60054 32.3683 5.36612 32.1339C5.1317 31.8995 5 31.5815 5 31.25C5 30.9185 5.1317 30.6005 5.36612 30.3661C5.60054 30.1317 5.91848 30 6.25 30C6.58152 30 6.89946 30.1317 7.13388 30.3661C7.3683 30.6005 7.5 30.9185 7.5 31.25ZM7.5 36.25C7.5 36.5815 7.3683 36.8995 7.13388 37.1339C6.89946 37.3683 6.58152 37.5 6.25 37.5C5.91848 37.5 5.60054 37.3683 5.36612 37.1339C5.1317 36.8995 5 36.5815 5 36.25C5 35.9185 5.1317 35.6005 5.36612 35.3661C5.60054 35.1317 5.91848 35 6.25 35C6.58152 35 6.89946 35.1317 7.13388 35.3661C7.3683 35.6005 7.5 35.9185 7.5 36.25ZM7.5 41.25C7.5 41.5815 7.3683 41.8995 7.13388 42.1339C6.89946 42.3683 6.58152 42.5 6.25 42.5C5.91848 42.5 5.60054 42.3683 5.36612 42.1339C5.1317 41.8995 5 41.5815 5 41.25C5 40.9185 5.1317 40.6005 5.36612 40.3661C5.60054 40.1317 5.91848 40 6.25 40C6.58152 40 6.89946 40.1317 7.13388 40.3661C7.3683 40.6005 7.5 40.9185 7.5 41.25ZM38.75 28.75H26.25C25.9185 28.75 25.6005 28.6183 25.3661 28.3839C25.1317 28.1495 25 27.8315 25 27.5C25 27.1685 25.1317 26.8505 25.3661 26.6161C25.6005 26.3817 25.9185 26.25 26.25 26.25H38.75C39.0815 26.25 39.3995 26.3817 39.6339 26.6161C39.8683 26.8505 40 27.1685 40 27.5C40 27.8315 39.8683 28.1495 39.6339 28.3839C39.3995 28.6183 39.0815 28.75 38.75 28.75ZM38.75 33.75H26.25C25.9185 33.75 25.6005 33.6183 25.3661 33.3839C25.1317 33.1495 25 32.8315 25 32.5C25 32.1685 25.1317 31.8505 25.3661 31.6161C25.6005 31.3817 25.9185 31.25 26.25 31.25H38.75C39.0815 31.25 39.3995 31.3817 39.6339 31.6161C39.8683 31.8505 40 32.1685 40 32.5C40 32.8315 39.8683 33.1495 39.6339 33.3839C39.3995 33.6183 39.0815 33.75 38.75 33.75ZM38.75 38.75H26.25C25.9185 38.75 25.6005 38.6183 25.3661 38.3839C25.1317 38.1495 25 37.8315 25 37.5C25 37.1685 25.1317 36.8505 25.3661 36.6161C25.6005 36.3817 25.9185 36.25 26.25 36.25H38.75C39.0815 36.25 39.3995 36.3817 39.6339 36.6161C39.8683 36.8505 40 37.1685 40 37.5C40 37.8315 39.8683 38.1495 39.6339 38.3839C39.3995 38.6183 39.0815 38.75 38.75 38.75Z" fill="white"/>
<path d="M21.25 13H38.75C39.1642 13 39.5 13.3358 39.5 13.75V21.25C39.5 21.6642 39.1642 22 38.75 22H21.25C20.8358 22 20.5 21.6642 20.5 21.25V13.75C20.5 13.3358 20.8358 13 21.25 13Z" stroke="white"/>
<path d="M45 16.75H53.75C54.1642 16.75 54.5 17.0858 54.5 17.5V25C54.5 25.4142 54.1642 25.75 53.75 25.75H45C44.5858 25.75 44.25 25.4142 44.25 25V17.5C44.25 17.0858 44.5858 16.75 45 16.75Z" stroke="white"/>
<path d="M6.25 16.75H15C15.4142 16.75 15.75 17.0858 15.75 17.5V25C15.75 25.4142 15.4142 25.75 15 25.75H6.25C5.83579 25.75 5.5 25.4142 5.5 25V17.5C5.5 17.0858 5.83579 16.75 6.25 16.75Z" stroke="white"/>
<path d="M56.25 10H46.25C46.25 9.00544 45.8549 8.05161 45.1516 7.34835C44.4484 6.64509 43.4946 6.25 42.5 6.25H17.5C16.5054 6.25 15.5516 6.64509 14.8483 7.34835C14.1451 8.05161 13.75 9.00544 13.75 10H3.75C2.75544 10 1.80161 10.3951 1.09835 11.0983C0.395088 11.8016 0 12.7554 0 13.75L0 46.25C0 47.2446 0.395088 48.1984 1.09835 48.9016C1.80161 49.6049 2.75544 50 3.75 50H13.75C13.75 50.9946 14.1451 51.9484 14.8483 52.6516C15.5516 53.3549 16.5054 53.75 17.5 53.75H42.5C43.4946 53.75 44.4484 53.3549 45.1516 52.6516C45.8549 51.9484 46.25 50.9946 46.25 50H56.25C57.2446 50 58.1984 49.6049 58.9016 48.9016C59.6049 48.1984 60 47.2446 60 46.25V13.75C60 12.7554 59.6049 11.8016 58.9016 11.0983C58.1984 10.3951 57.2446 10 56.25 10ZM3.75 47.5C3.41848 47.5 3.10054 47.3683 2.86612 47.1339C2.6317 46.8995 2.5 46.5815 2.5 46.25V13.75C2.5 13.4185 2.6317 13.1005 2.86612 12.8661C3.10054 12.6317 3.41848 12.5 3.75 12.5H13.75V30H11.25C10.9185 30 10.6005 30.1317 10.3661 30.3661C10.1317 30.6005 10 30.9185 10 31.25C10 31.5815 10.1317 31.8995 10.3661 32.1339C10.6005 32.3683 10.9185 32.5 11.25 32.5H13.75V35H11.25C10.9185 35 10.6005 35.1317 10.3661 35.3661C10.1317 35.6005 10 35.9185 10 36.25C10 36.5815 10.1317 36.8995 10.3661 37.1339C10.6005 37.3683 10.9185 37.5 11.25 37.5H13.75V40H11.25C10.9185 40 10.6005 40.1317 10.3661 40.3661C10.1317 40.6005 10 40.9185 10 41.25C10 41.5815 10.1317 41.8995 10.3661 42.1339C10.6005 42.3683 10.9185 42.5 11.25 42.5H13.75V47.5H3.75ZM43.75 50C43.75 50.3315 43.6183 50.6495 43.3839 50.8839C43.1495 51.1183 42.8315 51.25 42.5 51.25H17.5C17.1685 51.25 16.8505 51.1183 16.6161 50.8839C16.3817 50.6495 16.25 50.3315 16.25 50V10C16.25 9.66848 16.3817 9.35054 16.6161 9.11612C16.8505 8.8817 17.1685 8.75 17.5 8.75H42.5C42.8315 8.75 43.1495 8.8817 43.3839 9.11612C43.6183 9.35054 43.75 9.66848 43.75 10V50ZM57.5 46.25C57.5 46.5815 57.3683 46.8995 57.1339 47.1339C56.8995 47.3683 56.5815 47.5 56.25 47.5H46.25V42.5H53.75C54.0815 42.5 54.3995 42.3683 54.6339 42.1339C54.8683 41.8995 55 41.5815 55 41.25C55 40.9185 54.8683 40.6005 54.6339 40.3661C54.3995 40.1317 54.0815 40 53.75 40H46.25V37.5H53.75C54.0815 37.5 54.3995 37.3683 54.6339 37.1339C54.8683 36.8995 55 36.5815 55 36.25C55 35.9185 54.8683 35.6005 54.6339 35.3661C54.3995 35.1317 54.0815 35 53.75 35H46.25V32.5H53.75C54.0815 32.5 54.3995 32.3683 54.6339 32.1339C54.8683 31.8995 55 31.5815 55 31.25C55 30.9185 54.8683 30.6005 54.6339 30.3661C54.3995 30.1317 54.0815 30 53.75 30H46.25V12.5H56.25C56.5815 12.5 56.8995 12.6317 57.1339 12.8661C57.3683 13.1005 57.5 13.4185 57.5 13.75V46.25Z" fill="white"/>
</g>
<defs>
<clipPath id="clip0_21_256">
<rect width="60" height="60" fill="white"/>
</clipPath>
</defs>
</svg>
