<svg width="60" height="60" viewBox="0 0 60 60" fill="none" xmlns="http://www.w3.org/2000/svg">
<g clip-path="url(#clip0_21_290)">
<path d="M58.7877 21.8372L38.1627 1.21218C37.7962 0.845615 37.2037 0.845615 36.8371 1.21218L1.21212 36.8372C0.943996 37.1053 0.863371 37.5084 1.00868 37.8591C1.154 38.2097 1.49618 38.4375 1.87493 38.4375H5.62493V43.125C5.62493 43.6434 6.04493 44.0625 6.56243 44.0625H10.3124V48.75C10.3124 49.2684 10.7324 49.6875 11.2499 49.6875H15.9374V53.4375C15.9374 53.9559 16.3574 54.375 16.8749 54.375H21.5624V58.125C21.5624 58.5037 21.7912 58.8469 22.1409 58.9912C22.2571 59.04 22.379 59.0625 22.4999 59.0625C22.7437 59.0625 22.9837 58.9669 23.1627 58.7878L58.7877 23.1628C59.1543 22.7962 59.1543 22.2037 58.7877 21.8372ZM22.4999 52.5H17.8124V48.75C17.8124 48.2316 17.3924 47.8125 16.8749 47.8125H12.1874V43.125C12.1874 42.6066 11.7674 42.1875 11.2499 42.1875H7.49993V37.5C7.49993 36.9816 7.07993 36.5625 6.56243 36.5625H4.13806L9.37493 31.3256L28.6743 50.625L23.4374 55.8619V53.4375C23.4374 52.9191 23.0174 52.5 22.4999 52.5ZM29.9999 49.2994L10.7006 30L37.4999 3.20062L56.7993 22.5L29.9999 49.2994Z" fill="white"/>
<path d="M31.5459 22.3482C32.0597 22.8611 32.7441 23.1432 33.4734 23.1432C34.2028 23.1432 34.8881 22.8611 35.4028 22.3473C36.465 21.2832 36.4641 19.5536 35.4009 18.4904L33.7153 16.8048C32.6878 15.7773 30.8831 15.7792 29.8594 16.8039C29.3456 17.3176 29.0625 18.002 29.0625 18.7314C29.0625 19.4607 29.3456 20.1461 29.8594 20.6598L31.5459 22.3482ZM31.1859 18.1304C31.3444 17.9711 31.5581 17.8829 31.7878 17.8829C32.0175 17.8829 32.2312 17.9711 32.3906 18.1304L34.0762 19.8161C34.4081 20.1479 34.4081 20.6898 34.0772 21.0207C33.7584 21.3376 33.1922 21.3386 32.8734 21.0217L31.1859 19.3342C31.0256 19.1748 30.9375 18.9611 30.9375 18.7314C30.9375 18.5017 31.0256 18.2898 31.1859 18.1304ZM45.0356 24.0329C45.5494 24.5467 46.2337 24.8298 46.9641 24.8298C47.6925 24.8298 48.3778 24.5467 48.8916 24.0339C49.4053 23.5201 49.6894 22.8357 49.6884 22.1045C49.6884 21.3761 49.4053 20.6907 48.8916 20.177L47.2041 18.4895C46.1766 17.462 44.3756 17.462 43.3509 18.4895C42.2878 19.5526 42.2869 21.2823 43.35 22.3464L45.0356 24.0329ZM44.6766 19.8161C44.835 19.6567 45.0478 19.5686 45.2766 19.5686C45.5053 19.5686 45.7191 19.6567 45.8784 19.8161L47.5659 21.5036C47.7253 21.6629 47.8134 21.8767 47.8134 22.1064C47.8134 22.3342 47.7262 22.5489 47.5659 22.7082C47.2472 23.027 46.6809 23.027 46.3622 22.7082L44.6766 21.0226C44.3437 20.6889 44.3437 20.1479 44.6766 19.8161ZM36.5906 11.2473C36.3928 10.7692 35.8416 10.5442 35.3653 10.7401C34.8872 10.9379 34.6603 11.4864 34.8581 11.9654L42.1584 29.5904C42.3075 29.9514 42.6572 30.1689 43.0247 30.1689C43.1447 30.1689 43.2666 30.1464 43.3837 30.0976C43.8619 29.8998 44.0887 29.3514 43.8909 28.8723L36.5906 11.2473ZM25.9753 22.7748C25.6087 22.4082 25.0162 22.4082 24.6497 22.7748L17.1497 30.2748C16.7831 30.6414 16.7831 31.2339 17.1497 31.6004C17.3325 31.7832 17.5725 31.8751 17.8125 31.8751C18.0525 31.8751 18.2925 31.7832 18.4753 31.6004L25.9753 24.1004C26.3419 23.7339 26.3419 23.1414 25.9753 22.7748ZM28.7878 25.5873C28.4212 25.2207 27.8287 25.2207 27.4622 25.5873L19.9622 33.0873C19.5956 33.4539 19.5956 34.0464 19.9622 34.4129C20.145 34.5957 20.385 34.6876 20.625 34.6876C20.865 34.6876 21.105 34.5957 21.2878 34.4129L28.7878 26.9129C29.1544 26.5464 29.1544 25.9539 28.7878 25.5873ZM31.6003 28.3998C31.2337 28.0332 30.6412 28.0332 30.2747 28.3998L22.7747 35.8998C22.4081 36.2664 22.4081 36.8589 22.7747 37.2254C22.9575 37.4082 23.1975 37.5001 23.4375 37.5001C23.6775 37.5001 23.9175 37.4082 24.1003 37.2254L31.6003 29.7254C31.9669 29.3589 31.9669 28.7664 31.6003 28.3998ZM34.4128 31.2123C34.0462 30.8457 33.4537 30.8457 33.0872 31.2123L25.5872 38.7123C25.2206 39.0789 25.2206 39.6714 25.5872 40.0379C25.77 40.2207 26.01 40.3126 26.25 40.3126C26.49 40.3126 26.73 40.2207 26.9128 40.0379L34.4128 32.5379C34.7794 32.1714 34.7794 31.5789 34.4128 31.2123ZM35.8997 34.0248L28.3997 41.5248C28.0331 41.8914 28.0331 42.4839 28.3997 42.8504C28.5825 43.0332 28.8225 43.1251 29.0625 43.1251C29.3025 43.1251 29.5425 43.0332 29.7253 42.8504L37.2253 35.3504C37.5919 34.9839 37.5919 34.3914 37.2253 34.0248C36.8587 33.6582 36.2662 33.6582 35.8997 34.0248Z" fill="white"/>
</g>
<defs>
<clipPath id="clip0_21_290">
<rect width="60" height="60" fill="white"/>
</clipPath>
</defs>
</svg>
