<svg width="60" height="60" viewBox="0 0 60 60" fill="none" xmlns="http://www.w3.org/2000/svg">
<path d="M53.6062 42.1688C53.0812 41.2313 52.4437 40.2937 51.7312 39.3C50.0358 37.1828 48.8606 34.6975 48.3 32.0438L47.5125 20.9812C47.0437 12.4125 42.0375 3.75 32.0812 3.75H27.9187C17.9625 3.75 12.9187 12.4125 12.4125 20.9625L11.625 32.0438C11.0668 34.721 9.89193 37.2313 8.19373 39.375C7.55623 40.35 6.91873 41.25 6.48748 42.0938C6.02465 42.7149 5.74434 43.4529 5.67809 44.2247C5.61184 44.9966 5.76228 45.7715 6.11248 46.4625C6.52106 47.1881 7.12299 47.7862 7.85126 48.19C8.57953 48.5939 9.40558 48.7877 10.2375 48.75H24.7125C24.4041 49.5996 24.305 50.511 24.4236 51.4071C24.5422 52.3031 24.8749 53.1574 25.3937 53.8975C25.9125 54.6377 26.6019 55.242 27.4038 55.6591C28.2056 56.0763 29.0961 56.2941 30 56.2941C30.9038 56.2941 31.7944 56.0763 32.5962 55.6591C33.398 55.242 34.0875 54.6377 34.6063 53.8975C35.125 53.1574 35.4578 52.3031 35.5764 51.4071C35.6949 50.511 35.5958 49.5996 35.2875 48.75H49.7625C50.602 48.7805 51.4334 48.5754 52.1624 48.1579C52.8914 47.7404 53.489 47.1271 53.8875 46.3875C54.2379 45.7278 54.3973 44.9834 54.3476 44.2381C54.2979 43.4927 54.0412 42.7761 53.6062 42.1688ZM31.875 50.625C31.875 50.9958 31.765 51.3584 31.559 51.6667C31.353 51.975 31.0601 52.2154 30.7175 52.3573C30.3749 52.4992 29.9979 52.5363 29.6342 52.464C29.2705 52.3916 28.9364 52.2131 28.6742 51.9508C28.4119 51.6886 28.2334 51.3545 28.161 50.9908C28.0887 50.6271 28.1258 50.2501 28.2677 49.9075C28.4096 49.5649 28.6499 49.272 28.9583 49.066C29.2666 48.86 29.6291 48.75 30 48.75C30.4973 48.75 30.9742 48.9475 31.3258 49.2992C31.6774 49.6508 31.875 50.1277 31.875 50.625ZM50.625 44.6813C50.625 44.8312 50.3062 45 49.8375 45H10.2375C9.76873 45 9.52498 44.8312 9.44998 44.6813C9.37498 44.5312 9.44998 44.325 9.63748 44.025C10.1437 43.1625 10.725 42.2625 11.325 41.3625C13.2 38.6625 15.075 35.5875 15.3562 32.3062L16.1625 21.225C16.5562 14.8875 19.875 7.5 27.9187 7.5H32.0812C40.125 7.5 43.4437 14.8875 43.8375 21.2437L44.6437 32.3062C44.8687 35.625 46.875 38.6625 48.75 41.3625C49.35 42.2625 49.9312 43.2375 50.5312 44.1937C50.5909 44.2581 50.6314 44.3379 50.6479 44.4241C50.6645 44.5103 50.6566 44.5994 50.625 44.6813Z" fill="white"/>
</svg>
