<svg width="56" height="56" viewBox="0 0 56 56" fill="none" xmlns="http://www.w3.org/2000/svg">
<path d="M54.9998 1V50.04C54.9998 51.3554 54.4773 52.617 53.5472 53.5471C52.6171 54.4772 51.3556 54.9997 50.0402 54.9997H6.76953C7.59614 54.9997 10.852 54.3924 10.852 47.9482V1H54.9998Z" stroke="white" stroke-width="2" stroke-linecap="round" stroke-linejoin="round"/>
<path d="M6.76942 55C7.59603 54.9493 10.8519 54.3926 10.8519 47.9484V27.9916H1V50.7657C1.00444 51.8873 1.45198 52.9617 2.2451 53.7549C3.03822 54.548 4.11265 54.9955 5.23428 55H6.76942ZM6.76942 55H6.56698M21.193 17.3638H45.4178M19.2867 29.628H36.713M19.2867 37.2025H36.713M43.1572 29.628H47.5771M43.1572 37.2025H47.5771" stroke="white" stroke-width="2" stroke-linecap="round" stroke-linejoin="round"/>
</svg>
