<svg width="60" height="60" viewBox="0 0 60 60" fill="none" xmlns="http://www.w3.org/2000/svg">
<path d="M11.25 11.25C11.7678 11.25 12.1875 10.8303 12.1875 10.3125C12.1875 9.79473 11.7678 9.375 11.25 9.375C10.7322 9.375 10.3125 9.79473 10.3125 10.3125C10.3125 10.8303 10.7322 11.25 11.25 11.25Z" fill="white"/>
<path d="M15.9375 11.25C16.4553 11.25 16.875 10.8303 16.875 10.3125C16.875 9.79473 16.4553 9.375 15.9375 9.375C15.4197 9.375 15 9.79473 15 10.3125C15 10.8303 15.4197 11.25 15.9375 11.25Z" fill="white"/>
<path d="M20.625 11.25C21.1428 11.25 21.5625 10.8303 21.5625 10.3125C21.5625 9.79473 21.1428 9.375 20.625 9.375C20.1072 9.375 19.6875 9.79473 19.6875 10.3125C19.6875 10.8303 20.1072 11.25 20.625 11.25Z" fill="white"/>
<path d="M49.6875 15H6.5625C6.31386 15 6.0754 14.9012 5.89959 14.7254C5.72377 14.5496 5.625 14.3111 5.625 14.0625C5.625 13.8139 5.72377 13.5754 5.89959 13.3996C6.0754 13.2238 6.31386 13.125 6.5625 13.125H49.6875C49.9361 13.125 50.1746 13.2238 50.3504 13.3996C50.5262 13.5754 50.625 13.8139 50.625 14.0625C50.625 14.3111 50.5262 14.5496 50.3504 14.7254C50.1746 14.9012 49.9361 15 49.6875 15ZM34.6875 41.25C34.4389 41.25 34.2004 41.1512 34.0246 40.9754C33.8488 40.7996 33.75 40.5611 33.75 40.3125V36.5625C33.75 36.3139 33.8488 36.0754 34.0246 35.8996C34.2004 35.7238 34.4389 35.625 34.6875 35.625C34.9361 35.625 35.1746 35.7238 35.3504 35.8996C35.5262 36.0754 35.625 36.3139 35.625 36.5625V40.3125C35.625 40.5611 35.5262 40.7996 35.3504 40.9754C35.1746 41.1512 34.9361 41.25 34.6875 41.25ZM51.6656 49.6875C51.8225 49.8424 51.9197 50.0476 51.9403 50.267C51.9608 50.4865 51.9034 50.7062 51.7781 50.8875C50.8315 52.1821 49.6636 53.2993 48.3281 54.1875C48.1806 54.3033 48 54.369 47.8125 54.375C47.6122 54.3735 47.4177 54.3078 47.2574 54.1877C47.0971 54.0675 46.9796 53.8992 46.9219 53.7074C46.8643 53.5155 46.8696 53.3103 46.937 53.1217C47.0045 52.9331 47.1306 52.7711 47.2969 52.6594C48.435 51.8978 49.4339 50.9465 50.25 49.8469C50.326 49.7348 50.4253 49.6406 50.5411 49.5705C50.657 49.5005 50.7866 49.4564 50.9211 49.4413C51.0556 49.4262 51.1918 49.4403 51.3204 49.4828C51.4489 49.5253 51.5667 49.5951 51.6656 49.6875Z" fill="white"/>
<path d="M54.375 38.1V42.9281C54.3773 44.3745 54.1462 45.8117 53.6906 47.1844C53.6374 47.3334 53.5474 47.4666 53.4289 47.5715C53.3103 47.6763 53.1672 47.7495 53.0128 47.7841C52.8584 47.8187 52.6977 47.8137 52.5457 47.7695C52.3938 47.7253 52.2555 47.6433 52.1437 47.5313C52.0265 47.409 51.9445 47.2573 51.9065 47.0923C51.8686 46.9272 51.876 46.7549 51.9281 46.5938C52.3069 45.4087 52.4998 44.1722 52.5 42.9281V38.1C52.516 37.7342 52.3968 37.3752 52.1651 37.0917C51.9334 36.8081 51.6054 36.6197 51.2438 36.5625C51.0461 36.5398 50.8458 36.5598 50.6565 36.6213C50.4673 36.6827 50.2935 36.7842 50.1469 36.9188C50.0013 37.0521 49.8853 37.2144 49.8062 37.3952C49.7271 37.576 49.6866 37.7714 49.6875 37.9688C49.6875 38.2174 49.5887 38.4558 49.4129 38.6317C49.2371 38.8075 48.9986 38.9063 48.75 38.9063C48.5014 38.9063 48.2629 38.8075 48.0871 38.6317C47.9113 38.4558 47.8125 38.2174 47.8125 37.9688V36.225C47.8285 35.8592 47.7093 35.5002 47.4776 35.2167C47.2459 34.9331 46.9179 34.7447 46.5563 34.6875C46.3586 34.6648 46.1583 34.6848 45.969 34.7463C45.7798 34.8077 45.606 34.9092 45.4594 35.0438C45.3138 35.1771 45.1978 35.3394 45.1187 35.5202C45.0396 35.701 44.9991 35.8964 45 36.0938C45 36.3424 44.9012 36.5809 44.7254 36.7567C44.5496 36.9325 44.3111 37.0313 44.0625 37.0313C43.8139 37.0313 43.5754 36.9325 43.3996 36.7567C43.2238 36.5809 43.125 36.3424 43.125 36.0938V35.2875C43.141 34.9217 43.0218 34.5627 42.7901 34.2792C42.5584 33.9956 42.2304 33.8072 41.8688 33.75C41.6711 33.7273 41.4708 33.7473 41.2815 33.8088C41.0923 33.8702 40.9185 33.9717 40.7719 34.1063C40.6263 34.2396 40.5103 34.4019 40.4312 34.5827C40.3521 34.7635 40.3116 34.9589 40.3125 35.1563C40.3125 35.4049 40.2137 35.6434 40.0379 35.8192C39.8621 35.995 39.6236 36.0938 39.375 36.0938C39.1264 36.0938 38.8879 35.995 38.7121 35.8192C38.5363 35.6434 38.4375 35.4049 38.4375 35.1563V26.7188C38.4386 26.5208 38.3979 26.3247 38.3181 26.1436C38.2382 25.9624 38.121 25.8001 37.9741 25.6673C37.8272 25.5346 37.6539 25.4344 37.4656 25.3732C37.2772 25.3121 37.0781 25.2914 36.8813 25.3125C36.5196 25.3697 36.1916 25.5581 35.9599 25.8417C35.7282 26.1252 35.609 26.4842 35.625 26.85V36.5625C35.625 36.8111 35.5262 37.0496 35.3504 37.2254C35.1746 37.4012 34.9361 37.5 34.6875 37.5C34.4389 37.5 34.2004 37.4012 34.0246 37.2254C33.8488 37.0496 33.75 36.8111 33.75 36.5625C33.7502 36.1851 33.6745 35.8116 33.5273 35.4641C33.3801 35.1166 33.1645 34.8023 32.8934 34.5399C32.6222 34.2774 32.301 34.0723 31.9489 33.9366C31.5967 33.8009 31.2209 33.7374 30.8438 33.75C30.6117 33.7733 30.3967 33.8823 30.2407 34.0556C30.0846 34.229 29.9988 34.4543 30 34.6875V42.9281C29.999 44.8532 30.4735 46.7487 31.3811 48.4463C32.2888 50.1439 33.6017 51.5911 35.2031 52.6594C35.385 52.8059 35.5057 53.0151 35.5415 53.2459C35.5772 53.4767 35.5255 53.7126 35.3965 53.9073C35.2675 54.1021 35.0704 54.2416 34.8439 54.2986C34.6174 54.3556 34.3777 54.326 34.1719 54.2156C32.3154 52.9834 30.7921 51.3118 29.7372 49.3492C28.6823 47.3866 28.1285 45.1938 28.125 42.9656V34.6875C28.124 33.9669 28.3996 33.2733 28.895 32.75C29.3905 32.2266 30.0679 31.9134 30.7875 31.875C31.8529 31.8416 32.8978 32.1723 33.75 32.8125V26.85C33.736 26.019 34.0284 25.2119 34.5713 24.5825C35.1142 23.9532 35.8697 23.5456 36.6937 23.4375C37.1524 23.3886 37.6163 23.4372 38.0548 23.5802C38.4934 23.7231 38.8968 23.9572 39.2385 24.2671C39.5802 24.5769 39.8526 24.9556 40.0377 25.3781C40.2228 25.8006 40.3164 26.2575 40.3125 26.7188V32.1938C40.8548 31.9336 41.457 31.8235 42.0563 31.875C42.5503 31.9327 43.0248 32.1019 43.4438 32.3699C43.8628 32.6378 44.2154 32.9976 44.475 33.4219C44.8928 33.1166 45.3774 32.9154 45.8886 32.8351C46.3998 32.7547 46.9228 32.7974 47.4141 32.9596C47.9055 33.1219 48.3511 33.399 48.7138 33.768C49.0766 34.137 49.3461 34.5872 49.5 35.0812C50.0896 34.7591 50.7626 34.6219 51.4313 34.6875C52.2553 34.7956 53.0108 35.2032 53.5537 35.8325C54.0966 36.4619 54.389 37.269 54.375 38.1ZM6.5625 26.25C6.31386 26.25 6.0754 26.1512 5.89959 25.9754C5.72377 25.7996 5.625 25.5611 5.625 25.3125V9.375C5.625 8.38044 6.02009 7.42661 6.72335 6.72335C7.42661 6.02009 8.38044 5.625 9.375 5.625H27.1875C27.4361 5.625 27.6746 5.72377 27.8504 5.89959C28.0262 6.0754 28.125 6.31386 28.125 6.5625C28.125 6.81114 28.0262 7.0496 27.8504 7.22541C27.6746 7.40123 27.4361 7.5 27.1875 7.5H9.375C8.87772 7.5 8.40081 7.69754 8.04918 8.04918C7.69754 8.40081 7.5 8.87772 7.5 9.375V25.3125C7.5 25.5611 7.40123 25.7996 7.22541 25.9754C7.0496 26.1512 6.81114 26.25 6.5625 26.25Z" fill="white"/>
<path d="M30 40.3125C30 40.5611 29.9012 40.7996 29.7254 40.9754C29.5496 41.1512 29.3111 41.25 29.0625 41.25H9.375C8.38044 41.25 7.42661 40.8549 6.72335 40.1516C6.02009 39.4484 5.625 38.4946 5.625 37.5V29.0625C5.625 28.8139 5.72377 28.5754 5.89959 28.3996C6.0754 28.2238 6.31386 28.125 6.5625 28.125C6.81114 28.125 7.0496 28.2238 7.22541 28.3996C7.40123 28.5754 7.5 28.8139 7.5 29.0625V37.5C7.5 37.9973 7.69754 38.4742 8.04918 38.8258C8.40081 39.1775 8.87772 39.375 9.375 39.375H29.0625C29.3111 39.375 29.5496 39.4738 29.7254 39.6496C29.9012 39.8254 30 40.0639 30 40.3125Z" fill="white"/>
<path d="M31.875 6.5625C31.875 6.04473 31.4553 5.625 30.9375 5.625C30.4197 5.625 30 6.04473 30 6.5625C30 7.08027 30.4197 7.5 30.9375 7.5C31.4553 7.5 31.875 7.08027 31.875 6.5625Z" fill="white"/>
<path d="M50.625 9.375V36.0938C50.625 36.3424 50.5262 36.5808 50.3504 36.7567C50.1746 36.9325 49.9361 37.0312 49.6875 37.0312C49.4389 37.0312 49.2004 36.9325 49.0246 36.7567C48.8488 36.5808 48.75 36.3424 48.75 36.0938V9.375C48.75 8.87772 48.5525 8.40081 48.2008 8.04918C47.8492 7.69754 47.3723 7.5 46.875 7.5H34.6875C34.4389 7.5 34.2004 7.40123 34.0246 7.22541C33.8488 7.0496 33.75 6.81114 33.75 6.5625C33.75 6.31386 33.8488 6.0754 34.0246 5.89959C34.2004 5.72377 34.4389 5.625 34.6875 5.625H46.875C47.8696 5.625 48.8234 6.02009 49.5266 6.72335C50.2299 7.42661 50.625 8.38044 50.625 9.375Z" fill="white"/>
<path d="M42.4781 27.1875H39.375C39.1264 27.1875 38.8879 27.0887 38.7121 26.9129C38.5363 26.7371 38.4375 26.4986 38.4375 26.25C38.4375 26.0014 38.5363 25.7629 38.7121 25.5871C38.8879 25.4113 39.1264 25.3125 39.375 25.3125H42.525C42.9463 25.314 43.3534 25.1605 43.6688 24.8813C43.8011 24.7624 43.9083 24.6181 43.984 24.4571C44.0597 24.2961 44.1023 24.1215 44.1094 23.9438C44.1025 23.74 44.0542 23.5398 43.9674 23.3553C43.8805 23.1709 43.757 23.006 43.6044 22.8709C43.4517 22.7358 43.2731 22.6332 43.0795 22.5695C42.8858 22.5057 42.6812 22.482 42.4781 22.5H34.3969C33.9756 22.4985 33.5685 22.652 33.2531 22.9312C33.1208 23.0501 33.0136 23.1944 32.9379 23.3554C32.8622 23.5164 32.8196 23.691 32.8125 23.8687C32.8197 24.0683 32.8666 24.2643 32.9505 24.4455C33.0344 24.6266 33.1537 24.7892 33.3012 24.9237C33.4488 25.0581 33.6217 25.1618 33.8098 25.2285C33.998 25.2953 34.1976 25.3239 34.3969 25.3125H34.7625C35.0111 25.3125 35.2496 25.4113 35.4254 25.5871C35.6012 25.7629 35.7 26.0014 35.7 26.25C35.7 26.4986 35.6012 26.7371 35.4254 26.9129C35.2496 27.0887 35.0111 27.1875 34.7625 27.1875H34.3969C33.504 27.2077 32.6393 26.8741 31.9913 26.2595C31.3433 25.6448 30.9645 24.799 30.9375 23.9062C30.9426 23.4654 31.0375 23.0301 31.2164 22.6272C31.3953 22.2242 31.6545 21.8619 31.9781 21.5625C32.6384 20.9579 33.5016 20.6233 34.3969 20.625H42.4781C43.371 20.6048 44.2357 20.9384 44.8837 21.553C45.5317 22.1677 45.9105 23.0135 45.9375 23.9062C45.9324 24.3471 45.8376 24.7824 45.6586 25.1853C45.4797 25.5883 45.2205 25.9506 44.8969 26.25C44.2366 26.8546 43.3734 27.1892 42.4781 27.1875ZM27.1875 29.0625H11.25C11.0014 29.0625 10.7629 28.9637 10.5871 28.7879C10.4113 28.6121 10.3125 28.3736 10.3125 28.125V18.75C10.3125 18.5014 10.4113 18.2629 10.5871 18.0871C10.7629 17.9113 11.0014 17.8125 11.25 17.8125H27.1875C27.4361 17.8125 27.6746 17.9113 27.8504 18.0871C28.0262 18.2629 28.125 18.5014 28.125 18.75V28.125C28.125 28.3736 28.0262 28.6121 27.8504 28.7879C27.6746 28.9637 27.4361 29.0625 27.1875 29.0625ZM12.1875 27.1875H26.25V19.6875H12.1875V27.1875ZM26.25 32.8125H12.1875C11.9389 32.8125 11.7004 32.7137 11.5246 32.5379C11.3488 32.3621 11.25 32.1236 11.25 31.875C11.25 31.6264 11.3488 31.3879 11.5246 31.2121C11.7004 31.0363 11.9389 30.9375 12.1875 30.9375H26.25C26.4986 30.9375 26.7371 31.0363 26.9129 31.2121C27.0887 31.3879 27.1875 31.6264 27.1875 31.875C27.1875 32.1236 27.0887 32.3621 26.9129 32.5379C26.7371 32.7137 26.4986 32.8125 26.25 32.8125ZM20.625 36.5625H12.1875C11.9389 36.5625 11.7004 36.4637 11.5246 36.2879C11.3488 36.1121 11.25 35.8736 11.25 35.625C11.25 35.3764 11.3488 35.1379 11.5246 34.9621C11.7004 34.7863 11.9389 34.6875 12.1875 34.6875H20.625C20.8736 34.6875 21.1121 34.7863 21.2879 34.9621C21.4637 35.1379 21.5625 35.3764 21.5625 35.625C21.5625 35.8736 21.4637 36.1121 21.2879 36.2879C21.1121 36.4637 20.8736 36.5625 20.625 36.5625Z" fill="white"/>
</svg>
