<svg width="60" height="60" viewBox="0 0 60 60" fill="none" xmlns="http://www.w3.org/2000/svg">
<g clip-path="url(#clip0_21_300)">
<path fill-rule="evenodd" clip-rule="evenodd" d="M15.1818 37.8548C15.1289 37.8548 15.0751 37.8483 15.0217 37.8333C14.6924 37.7455 14.4969 37.4069 14.5852 37.0779L16.8824 28.5048C16.9707 28.1747 17.309 27.9797 17.6384 28.0676C17.9677 28.1565 18.1631 28.4941 18.0748 28.8241L15.7775 37.3972C15.7037 37.6737 15.4543 37.8548 15.1818 37.8548ZM13.344 37.5933C13.2393 37.5933 13.1332 37.5665 13.036 37.5108L6.06419 33.4851C5.87322 33.3748 5.75562 33.1712 5.75562 32.9504C5.75562 32.7308 5.87322 32.5261 6.06419 32.4158L13.036 28.3912C13.331 28.2208 13.7086 28.3215 13.8791 28.6173C14.0496 28.9119 13.9483 29.2902 13.6531 29.4606L7.60718 32.9505L13.6531 36.4414C13.9483 36.6118 14.0496 36.9889 13.8791 37.2847C13.7648 37.4829 13.5573 37.5933 13.344 37.5933ZM19.3159 37.5933C19.1027 37.5933 18.8953 37.4829 18.7809 37.2847C18.6105 36.9889 18.7116 36.6118 19.0068 36.4414L25.0528 32.9504L19.0068 29.4605C18.7116 29.2902 18.6105 28.9119 18.7809 28.6173C18.9513 28.3215 19.3287 28.2208 19.624 28.3912L26.5957 32.4158C26.7867 32.5261 26.9043 32.7308 26.9043 32.9504C26.9043 33.1712 26.7867 33.3748 26.5957 33.4851L19.624 37.5108C19.5268 37.5665 19.4206 37.5933 19.3159 37.5933ZM52.1882 13.3097H8.97348C8.63263 13.3097 8.3563 13.0333 8.3563 12.6926C8.3563 12.3518 8.63263 12.0753 8.97348 12.0753H52.1882C52.529 12.0753 52.8053 12.3518 52.8053 12.6926C52.8053 13.0332 52.529 13.3097 52.1882 13.3097ZM16.6764 10.5624H13.9249C13.4703 10.5624 13.1019 10.1938 13.1019 9.73945C13.1019 9.28511 13.4703 8.91654 13.9249 8.91654L16.6764 8.9165C17.1309 8.9165 17.4993 9.28511 17.4993 9.73945C17.4993 10.1937 17.1309 10.5624 16.6764 10.5624ZM22.252 10.5624H19.5004C19.0459 10.5624 18.6774 10.1938 18.6774 9.73945C18.6774 9.28511 19.0459 8.91654 19.5004 8.91654L22.252 8.9165C22.7065 8.9165 23.0749 9.28511 23.0749 9.73945C23.0749 10.1937 22.7065 10.5624 22.252 10.5624ZM27.8276 10.5624H25.0761C24.6216 10.5624 24.2531 10.1938 24.2531 9.73945C24.2531 9.28511 24.6216 8.91654 25.076 8.91654L27.8276 8.9165C28.2821 8.9165 28.6506 9.28511 28.6506 9.73945C28.6506 10.1937 28.2821 10.5624 27.8276 10.5624Z" fill="white"/>
<path fill-rule="evenodd" clip-rule="evenodd" d="M8.97348 25.9162C8.63263 25.9162 8.35623 25.6397 8.35623 25.299L8.35627 8.93488C8.35627 7.41013 9.59661 6.17041 11.1211 6.17041H50.0405C51.5651 6.17041 52.8054 7.41013 52.8054 8.93488V17.343C52.8054 17.6837 52.5291 17.9602 52.1883 17.9602C51.8473 17.9602 51.5711 17.6838 51.5711 17.343V8.93488C51.5711 8.09162 50.8844 7.4048 50.0405 7.4048H11.1211C10.2772 7.4048 9.59061 8.09163 9.59061 8.93488L9.59064 25.299C9.59064 25.6397 9.31433 25.9162 8.97348 25.9162ZM52.1882 37.9074C51.8473 37.9074 51.571 37.6309 51.571 37.2902V28.6121C51.571 28.2713 51.8472 27.9949 52.1882 27.9949C52.5291 27.9949 52.8054 28.2713 52.8054 28.6121V37.2902C52.8054 37.6309 52.5291 37.9074 52.1882 37.9074ZM50.0405 53.8268H11.1211C9.59657 53.8268 8.3562 52.5859 8.3562 51.0612L8.35624 40.6033C8.35624 40.2626 8.63259 39.9861 8.97345 39.9861C9.3143 39.9861 9.59059 40.2626 9.59059 40.6033L9.59062 51.0612C9.59062 51.9055 10.2772 52.5924 11.1211 52.5924H50.0405C50.8844 52.5924 51.571 51.9055 51.571 51.0612V48.5592C51.571 48.2174 51.8473 47.942 52.1883 47.942C52.5291 47.942 52.8054 48.2174 52.8054 48.5592V51.0612C52.8054 52.5859 51.565 53.8268 50.0405 53.8268Z" fill="white"/>
<path fill-rule="evenodd" clip-rule="evenodd" d="M4.28098 39.986H28.3791V25.915H4.28098V39.986ZM28.9962 41.2204H3.66384C3.32295 41.2204 3.04663 40.944 3.04663 40.6032V25.2989C3.04663 24.957 3.32295 24.6817 3.66384 24.6817H28.9962C29.3371 24.6817 29.6134 24.957 29.6134 25.2989V40.6032C29.6134 40.944 29.3371 41.2204 28.9962 41.2204ZM38.2985 27.9948H55.7159V17.9601H38.2985V27.9948ZM56.3331 29.2292H37.6813C37.3404 29.2292 37.0642 28.9528 37.0642 28.612V17.343C37.0642 17.0022 37.3404 16.7258 37.6813 16.7258H56.3331C56.674 16.7258 56.9502 17.0023 56.9502 17.343V28.612C56.9502 28.9528 56.6739 29.2292 56.3331 29.2292ZM38.2986 47.942H55.716V37.9073H38.2986V47.942ZM56.3332 49.1764H37.6814C37.3406 49.1764 37.0643 48.9 37.0643 48.5592V37.2902C37.0643 36.9494 37.3406 36.673 37.6814 36.673L56.3332 36.673C56.6741 36.673 56.9502 36.9494 56.9502 37.2902V48.5592C56.9502 48.9 56.674 49.1764 56.3332 49.1764Z" fill="white"/>
<path fill-rule="evenodd" clip-rule="evenodd" d="M53.679 21.3686H40.3359C39.995 21.3686 39.7188 21.0922 39.7188 20.7515C39.7188 20.4107 39.995 20.1343 40.3359 20.1343L53.679 20.1343C54.0199 20.1343 54.2961 20.4107 54.2961 20.7515C54.2961 21.0922 54.0198 21.3687 53.679 21.3686ZM53.679 25.8207H40.3359C39.995 25.8207 39.7188 25.5442 39.7188 25.2035C39.7188 24.8628 39.995 24.5863 40.3359 24.5863H53.679C54.0199 24.5863 54.2961 24.8628 54.2961 25.2035C54.2961 25.5442 54.0198 25.8207 53.679 25.8207ZM53.679 41.3158H40.3359C39.995 41.3158 39.7188 41.0394 39.7188 40.6986C39.7188 40.3568 39.995 40.0815 40.3359 40.0815H53.679C54.0199 40.0815 54.2961 40.3568 54.2961 40.6986C54.2961 41.0394 54.0198 41.3159 53.679 41.3158ZM53.679 45.7679H40.3359C39.995 45.7679 39.7188 45.4915 39.7188 45.1508C39.7188 44.81 39.995 44.5335 40.3359 44.5335H53.679C54.0199 44.5335 54.2961 44.81 54.2961 45.1508C54.2961 45.4915 54.0198 45.7679 53.679 45.7679Z" fill="white"/>
</g>
<defs>
<clipPath id="clip0_21_300">
<rect width="60" height="60" fill="white"/>
</clipPath>
</defs>
</svg>
