<svg width="24" height="24" viewBox="0 0 24 24" fill="none" xmlns="http://www.w3.org/2000/svg">
<path d="M12 0C7.03711 0 3 4.03758 3 9C3 15.6397 11.3037 23.5312 11.6573 23.8643C11.7539 23.9546 11.877 24 12 24C12.123 24 12.2461 23.9546 12.3428 23.8643C12.6963 23.5312 21 15.6397 21 9C21 4.03758 16.9629 0 12 0ZM12 14C9.24314 14 6.99998 11.7569 6.99998 9C6.99998 6.24314 9.24319 3.99998 12 3.99998C14.7568 3.99998 17 6.24319 17 9C17 11.7568 14.7569 14 12 14Z" fill="url(#paint0_linear_21_38)"/>
<defs>
<linearGradient id="paint0_linear_21_38" x1="12" y1="0" x2="12" y2="24" gradientUnits="userSpaceOnUse">
<stop stop-color="#FAD000"/>
<stop offset="1" stop-color="#F58C00"/>
</linearGradient>
</defs>
</svg>
