<svg width="24" height="24" viewBox="0 0 24 24" fill="none" xmlns="http://www.w3.org/2000/svg">
<path d="M20.6898 12C20.6898 16.825 16.7648 20.75 11.9398 20.75C7.53078 20.75 3.79678 17.458 3.25578 13.093C3.20478 12.681 3.49678 12.307 3.90778 12.256C4.31978 12.206 4.69378 12.496 4.74378 12.908C5.19278 16.524 8.28578 19.25 11.9398 19.25C15.9378 19.25 19.1898 15.998 19.1898 12C19.1898 8.002 15.9378 4.75 11.9398 4.75C10.2868 4.75 8.72078 5.303 7.45978 6.3H8.40378C8.81778 6.3 9.15378 6.636 9.15378 7.05C9.15378 7.464 8.81778 7.8 8.40378 7.8H5.57578C5.16178 7.8 4.82578 7.464 4.82578 7.05V4.221C4.82578 3.807 5.16178 3.471 5.57578 3.471C5.98978 3.471 6.32578 3.807 6.32578 4.221V5.3C7.88278 3.987 9.85178 3.25 11.9398 3.25C16.7648 3.25 20.6898 7.175 20.6898 12ZM11.9998 7.25C11.5858 7.25 11.2498 7.586 11.2498 8V8.277C10.0528 8.412 9.13378 9.477 9.26178 10.735C9.38078 11.906 10.4558 12.75 11.6328 12.75H12.4998C12.9138 12.75 13.2498 13.087 13.2498 13.5C13.2498 13.913 12.9138 14.25 12.4998 14.25H10.7508C10.3368 14.25 10.0008 14.586 10.0008 15C10.0008 15.414 10.3368 15.75 10.7508 15.75H11.2498V16C11.2498 16.414 11.5858 16.75 11.9998 16.75C12.4138 16.75 12.7498 16.414 12.7498 16V15.716C13.7678 15.556 14.6318 14.777 14.7378 13.735C14.8748 12.389 13.8178 11.25 12.4998 11.25H11.4998C11.0858 11.25 10.7498 10.914 10.7498 10.5C10.7498 10.086 11.0858 9.75 11.4998 9.75H13.2538C13.6678 9.75 14.0038 9.414 14.0038 9C14.0038 8.586 13.6678 8.25 13.2538 8.25H12.7498V8C12.7498 7.586 12.4138 7.25 11.9998 7.25Z" fill="#141414"/>
</svg>
