<svg width="24" height="24" viewBox="0 0 24 24" fill="none" xmlns="http://www.w3.org/2000/svg">
<path d="M1.50254 1.40029C1.40342 1.39991 1.30521 1.4191 1.21356 1.45686C1.12191 1.49462 1.03865 1.55018 0.968559 1.62027C0.89847 1.69036 0.842946 1.7736 0.805187 1.86524C0.767429 1.95689 0.748182 2.05513 0.748557 2.15425V8.41855C0.747809 8.51719 0.766499 8.61501 0.80356 8.70643C0.84062 8.79785 0.895324 8.88113 0.964549 8.95141C1.03377 9.02168 1.11616 9.07759 1.20701 9.11602C1.29786 9.15446 1.3954 9.17462 1.49404 9.17536C1.65844 9.17536 1.82001 9.19236 1.97024 9.22354C2.12319 9.25583 2.2824 9.23959 2.42569 9.17709C2.56897 9.1146 2.68919 9.009 2.76958 8.87494C2.95749 8.56098 3.24318 8.31729 3.58285 8.18127C3.92252 8.04524 4.29743 8.02436 4.6501 8.12184C5.00277 8.21932 5.31375 8.4298 5.53535 8.72096C5.75694 9.01212 5.87694 9.36793 5.87694 9.73383C5.87694 10.0997 5.75694 10.4555 5.53535 10.7467C5.31375 11.0378 5.00277 11.2482 4.6501 11.3457C4.29743 11.4432 3.92252 11.4223 3.58285 11.2863C3.24318 11.1503 2.95749 10.9066 2.76958 10.5926C2.68919 10.4586 2.56897 10.353 2.42569 10.2905C2.2824 10.228 2.12319 10.2117 1.97024 10.244C1.81528 10.2743 1.6576 10.2885 1.49971 10.2865C1.40083 10.2865 1.30292 10.3061 1.2116 10.344C1.12028 10.3819 1.03735 10.4375 0.967559 10.5075C0.897771 10.5776 0.842501 10.6608 0.804919 10.7522C0.767337 10.8437 0.748184 10.9417 0.748557 11.0405V16.7266C0.748557 16.9258 0.827696 17.1168 0.968564 17.2577C1.10943 17.3986 1.30049 17.4778 1.49971 17.4778H7.63364C7.11209 18.0532 6.52817 18.6285 6.52817 19.4279C6.52817 21.1711 7.95678 22.5998 9.70002 22.5998C11.4404 22.5998 12.8747 21.1683 12.8719 19.425C12.8719 18.6314 12.2879 18.0532 11.7664 17.4778H17.3788C17.5775 17.477 17.7678 17.3975 17.9081 17.2567C18.0483 17.116 18.1271 16.9253 18.1271 16.7266V11.3325C18.7025 11.8597 19.2807 12.4436 20.0801 12.4465C21.8233 12.4465 23.2463 11.015 23.2463 9.27173C23.244 8.4327 22.9097 7.62874 22.3164 7.03545C21.7231 6.44216 20.9191 6.10787 20.0801 6.10563H20.0744C19.2751 6.10563 18.7025 6.68952 18.1271 7.2139V2.15425C18.1275 2.05561 18.1084 1.95782 18.071 1.86654C18.0336 1.77526 17.9786 1.69227 17.9091 1.62226C17.8396 1.55224 17.757 1.4966 17.666 1.45851C17.575 1.42041 17.4774 1.40066 17.3788 1.40029H11.0067C10.8085 1.40104 10.6186 1.48009 10.4784 1.62027C10.3382 1.76044 10.2592 1.95031 10.2584 2.14854C10.2584 2.30849 10.2423 2.46812 10.2102 2.62483C10.1786 2.77735 10.1951 2.93592 10.2576 3.07862C10.3201 3.22133 10.4253 3.34104 10.5589 3.42126C10.8762 3.60638 11.1234 3.89138 11.2618 4.23171C11.4002 4.57204 11.4221 4.94855 11.324 5.30262C11.226 5.65669 11.0135 5.96839 10.7197 6.18902C10.4259 6.40964 10.0674 6.52684 9.70002 6.52231C9.48045 6.52381 9.26277 6.48168 9.05957 6.39853C8.85636 6.31537 8.67165 6.1928 8.51613 6.03781C8.36061 5.88282 8.23736 5.69853 8.15352 5.49561C8.06967 5.29268 8.02689 5.07513 8.02764 4.85557V4.84986C8.02874 4.56184 8.10421 4.27897 8.24673 4.02869C8.38926 3.7784 8.59401 3.56918 8.84115 3.42126C8.97468 3.34104 9.07997 3.22133 9.14243 3.07862C9.2049 2.93592 9.22145 2.77735 9.1898 2.62483C9.15774 2.46812 9.1416 2.30849 9.14161 2.14854C9.14087 1.95031 9.06178 1.76044 8.92161 1.62027C8.78144 1.48009 8.59153 1.40104 8.39329 1.40029H1.50254ZM2.24803 2.90259H7.63364C7.11209 3.47516 6.52817 4.05336 6.52817 4.84986C6.52817 6.5931 7.95678 8.02461 9.70002 8.02461C11.4404 8.02461 12.8747 6.5931 12.8719 4.84986C12.8719 4.05052 12.2879 3.478 11.7664 2.90259H16.6248V7.96787C16.6248 8.16659 16.7035 8.35726 16.8438 8.49804C16.984 8.63883 17.1744 8.71831 17.3731 8.71906C17.5347 8.71906 17.6991 8.73608 17.8493 8.7701C18.0024 8.80122 18.1614 8.78378 18.3042 8.72027C18.447 8.65676 18.5664 8.55035 18.6458 8.41578C18.7945 8.16849 19.0048 7.96397 19.2562 7.82237C19.5077 7.68076 19.7915 7.60691 20.0801 7.60793C21.0126 7.60793 21.7525 8.34202 21.7525 9.27458C21.885 9.49563 21.9647 9.74437 21.9852 10.0013C22.0058 10.2582 21.9667 10.5164 21.871 10.7557C21.7753 10.995 21.6255 11.209 21.4335 11.3808C21.2414 11.5527 21.0122 11.6779 20.7638 11.7466C20.5154 11.8153 20.2544 11.8256 20.0014 11.7768C19.7483 11.7279 19.5099 11.6213 19.3049 11.4651C19.0998 11.3089 18.9337 11.1075 18.8193 10.8765C18.705 10.6455 18.6456 10.3912 18.6458 10.1335C18.566 9.99942 18.4464 9.89352 18.3037 9.83054C18.1609 9.76755 18.0021 9.75062 17.8493 9.78201C17.6946 9.8149 17.5369 9.83202 17.3788 9.83305C17.2801 9.83267 17.1824 9.8517 17.0911 9.8891C16.9998 9.9265 16.9168 9.98155 16.8468 10.051C16.7768 10.1205 16.7211 10.2031 16.683 10.2941C16.645 10.3851 16.6252 10.4827 16.6248 10.5813V15.9783H11.0067C10.8085 15.9791 10.6186 16.0581 10.4784 16.1983C10.3382 16.3385 10.2592 16.5283 10.2584 16.7266C10.2584 16.8865 10.2423 17.0461 10.2102 17.2028C10.1792 17.3549 10.1961 17.5129 10.2585 17.655C10.3209 17.7971 10.4259 17.9164 10.5589 17.9964C10.8777 18.1809 11.1262 18.466 11.2656 18.8069C11.405 19.1478 11.4274 19.5254 11.3291 19.8804C11.2309 20.2354 11.0177 20.5477 10.7229 20.7684C10.428 20.9892 10.0683 21.1059 9.70002 21.1003C9.48004 21.2286 9.23354 21.3047 8.97952 21.3227C8.7255 21.3408 8.47072 21.3003 8.23482 21.2043C7.99892 21.1084 7.78819 20.9596 7.61887 20.7694C7.44954 20.5792 7.32614 20.3526 7.25816 20.1072C7.19019 19.8618 7.17946 19.604 7.2268 19.3538C7.27414 19.1035 7.37828 18.8675 7.53121 18.6639C7.68413 18.4603 7.88176 18.2944 8.10887 18.1792C8.33598 18.064 8.58651 18.0024 8.84115 17.9993C8.97468 17.9191 9.07997 17.7994 9.14243 17.6566C9.2049 17.5139 9.22145 17.3553 9.1898 17.2028C9.15774 17.0461 9.1416 16.8865 9.14161 16.7266C9.14087 16.5283 9.06178 16.3385 8.92161 16.1983C8.78144 16.0581 8.59153 15.9791 8.39329 15.9783H2.24803V11.7916C2.82344 12.316 3.39601 12.8972 4.19535 12.9H4.20102C5.04054 12.8985 5.84529 12.5645 6.43919 11.9711C7.03309 11.3778 7.36778 10.5733 7.37003 9.73383C7.37003 7.99059 5.94426 6.55908 4.20102 6.55908H4.19535C3.39885 6.56191 2.82344 7.14305 2.24803 7.66744V2.90259Z" fill="#141414"/>
</svg>
