<svg width="20" height="20" viewBox="0 0 20 20" fill="none" xmlns="http://www.w3.org/2000/svg">
<g clip-path="url(#clip0_28_637)">
<path fill-rule="evenodd" clip-rule="evenodd" d="M10.0033 0.831657C4.95003 0.831657 0.830078 4.94577 0.830078 9.99821C0.830078 15.0506 4.95086 19.1698 10.0033 19.1698C15.0557 19.1698 19.1682 15.0506 19.1682 9.99821C19.1682 4.94577 15.0557 0.831657 10.0033 0.831657ZM10.0033 2.4983C10.9886 2.49666 11.9645 2.68954 12.8751 3.06588C13.7857 3.44222 14.613 3.99462 15.3096 4.6914C16.0062 5.38818 16.5585 6.21563 16.9346 7.1263C17.3107 8.03696 17.5034 9.01293 17.5015 9.99821C17.5035 10.9838 17.311 11.96 16.9349 12.871C16.5589 13.782 16.0067 14.6098 15.3102 15.307C14.6136 16.0042 13.7862 16.5571 12.8756 16.9339C11.9649 17.3108 10.9889 17.5042 10.0033 17.5031C9.01732 17.5043 8.04079 17.311 7.12962 16.9343C6.21844 16.5576 5.39052 16.0049 4.69325 15.3078C3.99598 14.6107 3.44306 13.7829 3.06615 12.8718C2.68924 11.9607 2.49574 10.9842 2.49672 9.99821C2.49672 5.8466 5.85168 2.4983 10.0033 2.4983ZM9.98996 4.15328C9.87982 4.15436 9.77098 4.17727 9.66974 4.22068C9.5685 4.26408 9.47687 4.32713 9.40015 4.40618C9.32343 4.48522 9.26315 4.57869 9.22278 4.68118C9.18241 4.78367 9.16277 4.89314 9.16497 5.00327V9.99821C9.16543 10.1079 9.18753 10.2164 9.23001 10.3175C9.27248 10.4186 9.33448 10.5103 9.41247 10.5874L12.7458 13.9223C12.8229 14.0017 12.915 14.0649 13.0168 14.1082C13.1186 14.1516 13.228 14.1743 13.3386 14.1749C13.4492 14.1755 13.5589 14.1541 13.6612 14.1119C13.7634 14.0697 13.8563 14.0076 13.9343 13.9292C14.0123 13.8507 14.0739 13.7575 14.1155 13.655C14.1571 13.5525 14.1779 13.4427 14.1767 13.3321C14.1754 13.2214 14.1521 13.1122 14.1082 13.0106C14.0642 12.9091 14.0005 12.8173 13.9207 12.7407L10.8333 9.65321V5.00327C10.8355 4.8916 10.8153 4.78061 10.7738 4.67691C10.7323 4.57321 10.6704 4.47891 10.5917 4.39962C10.513 4.32033 10.4192 4.25766 10.3158 4.21534C10.2125 4.17302 10.1017 4.15192 9.98996 4.15328Z" fill="#141414"/>
</g>
<defs>
<clipPath id="clip0_28_637">
<rect width="20" height="20" fill="white"/>
</clipPath>
</defs>
</svg>
