<svg width="24" height="24" viewBox="0 0 24 24" fill="none" xmlns="http://www.w3.org/2000/svg">
<path d="M21.4875 10.0125C21.9 9.825 22.125 9.4125 22.125 9V6C22.125 5.3625 21.6375 4.875 21 4.875H3C2.3625 4.875 1.875 5.3625 1.875 6V8.925C1.875 9.375 2.1375 9.75 2.55 9.9375C3.3375 10.3125 3.8625 11.1 3.8625 12C3.8625 12.9 3.375 13.6875 2.55 14.0625C2.1375 14.25 1.875 14.625 1.875 15.075V18C1.875 18.6375 2.3625 19.125 3 19.125H21C21.6375 19.125 22.125 18.6375 22.125 18V15.0375C22.125 14.625 21.8625 14.2125 21.4875 14.025C20.7375 13.65 20.25 12.8625 20.25 12.0375C20.25 11.2125 20.7375 10.3875 21.4875 10.0125ZM19.5 12C19.5 13.125 20.1375 14.175 21.15 14.6625C21.3 14.7375 21.375 14.8875 21.375 15V18C21.375 18.225 21.225 18.375 21 18.375H3C2.775 18.375 2.625 18.225 2.625 18V15.075C2.625 14.925 2.7375 14.775 2.8875 14.7375C3.975 14.25 4.65 13.1625 4.65 12C4.65 10.8375 3.975 9.75 2.8875 9.2625C2.7375 9.1875 2.625 9.075 2.625 8.925V6C2.625 5.775 2.775 5.625 3 5.625H21C21.225 5.625 21.375 5.775 21.375 6V8.9625C21.375 9.1125 21.3 9.225 21.15 9.3C20.1375 9.825 19.5 10.875 19.5 12Z" fill="#141414"/>
<path d="M14.625 12.75C13.575 12.75 12.75 13.575 12.75 14.625C12.75 15.675 13.575 16.5 14.625 16.5C15.675 16.5 16.5 15.675 16.5 14.625C16.5 13.575 15.675 12.75 14.625 12.75ZM14.625 15.75C13.9875 15.75 13.5 15.2625 13.5 14.625C13.5 13.9875 13.9875 13.5 14.625 13.5C15.2625 13.5 15.75 13.9875 15.75 14.625C15.75 15.2625 15.2625 15.75 14.625 15.75ZM9.375 11.25C10.425 11.25 11.25 10.425 11.25 9.375C11.25 8.325 10.425 7.5 9.375 7.5C8.325 7.5 7.5 8.325 7.5 9.375C7.5 10.425 8.325 11.25 9.375 11.25ZM9.375 8.25C10.0125 8.25 10.5 8.7375 10.5 9.375C10.5 10.0125 10.0125 10.5 9.375 10.5C8.7375 10.5 8.25 10.0125 8.25 9.375C8.25 8.7375 8.7375 8.25 9.375 8.25ZM16.125 8.9625C16.125 8.6625 16.0125 8.4 15.7875 8.175C15.375 7.7625 14.6625 7.7625 14.25 8.175L8.2125 14.25C8.025 14.4375 7.875 14.7375 7.875 15.0375C7.875 15.3375 7.9875 15.6 8.2125 15.825C8.4375 16.05 8.7 16.1625 9 16.1625C9.2625 16.1625 9.5625 16.05 9.7875 15.825L15.7875 9.75C16.0125 9.525 16.125 9.2625 16.125 8.9625ZM15.2625 9.1875L9.1875 15.2625C9.0375 15.4125 8.85 15.4125 8.7 15.2625C8.625 15.1875 8.5875 15.1125 8.5875 15.0375C8.5875 14.9625 8.625 14.85 8.7 14.8125L14.775 8.7375C14.85 8.6625 14.925 8.625 15 8.625C15.075 8.625 15.1875 8.6625 15.225 8.7375C15.3 8.8125 15.3375 8.8875 15.3375 8.9625C15.3375 9.0375 15.3375 9.15 15.2625 9.1875Z" fill="#141414"/>
</svg>
