<svg width="24" height="24" viewBox="0 0 24 24" fill="none" xmlns="http://www.w3.org/2000/svg">
<path d="M23.2987 7.20845C23.2987 5.88518 22.222 4.80845 20.8987 4.80845H3.10166C1.7784 4.80845 0.70166 5.88518 0.70166 7.20845V16.7916C0.70166 18.1149 1.7784 19.1916 3.10166 19.1916H20.8987C22.222 19.1916 23.2987 18.1149 23.2987 16.7916V7.20845ZM22.3387 16.7916C22.3387 17.5856 21.6928 18.2316 20.8987 18.2316H3.10166C2.3076 18.2316 1.66166 17.5856 1.66166 16.7916V7.20845C1.66166 6.41438 2.3076 5.76845 3.10166 5.76845H20.8987C21.6928 5.76845 22.3387 6.41438 22.3387 7.20845V16.7916Z" fill="#141414"/>
<path d="M8.37547 6.89765C7.91899 6.89765 7.48738 7.002 7.09872 7.18349C6.70018 6.99869 6.26583 6.89674 5.82403 6.89674C4.15435 6.89674 2.79639 8.25797 2.79639 9.93096C2.79639 11.6006 4.15435 12.9586 5.82403 12.9586C6.26549 12.9586 6.69884 12.8571 7.09637 12.6731C7.4856 12.8552 7.91803 12.96 8.37547 12.96C10.0465 12.96 11.4064 11.6002 11.4064 9.92909C11.4064 8.25749 10.0465 6.89765 8.37547 6.89765ZM3.75639 9.93096C3.75639 8.78717 4.68403 7.85674 5.82403 7.85674C5.93304 7.85674 6.03951 7.86739 6.14468 7.88357C5.64927 8.42342 5.34403 9.14035 5.34403 9.92909C5.34403 10.7166 5.64859 11.4326 6.1429 11.9722C6.03835 11.9881 5.93242 11.9986 5.82403 11.9986C4.68403 11.9986 3.75639 11.071 3.75639 9.93096ZM8.37547 12C7.23312 12 6.30403 11.071 6.30403 9.92909C6.30403 8.78674 7.23312 7.85765 8.37547 7.85765C9.51735 7.85765 10.4464 8.78674 10.4464 9.92909C10.4464 11.071 9.51735 12 8.37547 12ZM10.9264 15.2119H3.51077C3.24547 15.2119 3.03077 15.4266 3.03077 15.6919C3.03077 15.9572 3.24547 16.1719 3.51077 16.1719H10.9264C11.1917 16.1719 11.4064 15.9572 11.4064 15.6919C11.4064 15.4266 11.1917 15.2119 10.9264 15.2119ZM19.7506 12.8517H15.0308C14.7655 12.8517 14.5508 13.0664 14.5508 13.3317C14.5508 13.5971 14.7655 13.8117 15.0308 13.8117H19.7506C20.0159 13.8117 20.2306 13.5971 20.2306 13.3317C20.2306 13.0664 20.0159 12.8517 19.7506 12.8517ZM19.7506 15.2119H15.0308C14.7655 15.2119 14.5508 15.4266 14.5508 15.6919C14.5508 15.9572 14.7655 16.1719 15.0308 16.1719H19.7506C20.0159 16.1719 20.2306 15.9572 20.2306 15.6919C20.2306 15.4266 20.0159 15.2119 19.7506 15.2119Z" fill="#141414"/>
</svg>
