<svg width="24" height="24" viewBox="0 0 24 24" fill="none" xmlns="http://www.w3.org/2000/svg">
<path d="M19.5901 12.09H17.7601V2C17.7601 1.86739 17.7075 1.74021 17.6137 1.64645C17.5199 1.55268 17.3927 1.5 17.2601 1.5H4.14014C4.00753 1.5 3.88035 1.55268 3.78658 1.64645C3.69282 1.74021 3.64014 1.86739 3.64014 2V20.1C3.64005 20.7297 3.88741 21.3341 4.32888 21.7831C4.77035 22.232 5.37057 22.4895 6.00014 22.5H18.4001C18.8396 22.4974 19.2603 22.3216 19.571 22.0109C19.8818 21.7002 20.0575 21.2794 20.0601 20.84V12.59C20.0604 12.4624 20.0118 12.3396 19.9245 12.2466C19.8371 12.1537 19.7175 12.0977 19.5901 12.09ZM6.00014 21.5C5.63057 21.4974 5.27704 21.3487 5.01665 21.0864C4.75625 20.8242 4.61013 20.4696 4.61014 20.1V2.5H16.7601V20.84C16.7603 21.0674 16.808 21.2922 16.9001 21.5H6.00014ZM19.0601 20.84C19.0575 21.016 18.9858 21.1838 18.8604 21.3073C18.735 21.4308 18.5661 21.5 18.3901 21.5C18.3035 21.5 18.2176 21.4829 18.1376 21.4498C18.0575 21.4166 17.9847 21.368 17.9234 21.3067C17.8622 21.2454 17.8135 21.1726 17.7804 21.0926C17.7472 21.0125 17.7301 20.9267 17.7301 20.84V13.09H19.0601V20.84Z" fill="#141414"/>
<path d="M10.7001 7C10.7964 7.0026 10.888 7.04273 10.9552 7.11184C11.0225 7.18095 11.0601 7.27358 11.0601 7.37C11.054 7.43892 11.0292 7.50486 10.9884 7.56073C10.9476 7.6166 10.8923 7.66026 10.8285 7.68702C10.7647 7.71378 10.6948 7.7226 10.6263 7.71256C10.5579 7.70251 10.4935 7.67396 10.4401 7.63C10.4067 7.59491 10.3796 7.55431 10.3601 7.51C10.3362 7.44707 10.2999 7.38961 10.2533 7.34105C10.2068 7.29249 10.1508 7.25383 10.089 7.22739C10.0271 7.20095 9.96051 7.18727 9.89322 7.18717C9.82593 7.18707 9.75931 7.20056 9.69735 7.22682C9.6354 7.25309 9.57938 7.29159 9.53266 7.34001C9.48594 7.38844 9.44948 7.4458 9.42545 7.50866C9.40143 7.57151 9.39034 7.63857 9.39285 7.70582C9.39536 7.77306 9.41142 7.83911 9.44006 7.9C9.50451 8.06261 9.60345 8.20931 9.73006 8.33C9.85893 8.46802 10.0206 8.57122 10.2001 8.63V8.82C10.2001 8.95261 10.2527 9.07978 10.3465 9.17355C10.4403 9.26732 10.5675 9.32 10.7001 9.32C10.8327 9.32 10.9598 9.26732 11.0536 9.17355C11.1474 9.07978 11.2001 8.95261 11.2001 8.82V8.66C11.5075 8.5505 11.7658 8.33483 11.9284 8.05183C12.0909 7.76882 12.1471 7.43708 12.0868 7.11632C12.0265 6.79556 11.8537 6.50686 11.5995 6.30221C11.3452 6.09755 11.0263 5.99038 10.7001 6C10.6519 6.00134 10.6041 5.99301 10.5592 5.97552C10.5144 5.95803 10.4735 5.93172 10.439 5.89816C10.4045 5.8646 10.3771 5.82446 10.3584 5.78011C10.3397 5.73577 10.33 5.68813 10.3301 5.64C10.3312 5.56263 10.3559 5.48745 10.4009 5.42451C10.4459 5.36157 10.509 5.31386 10.5819 5.28777C10.6547 5.26168 10.7338 5.25844 10.8085 5.2785C10.8832 5.29855 10.9501 5.34094 11.0001 5.4C11.0271 5.43775 11.0505 5.47792 11.0701 5.52C11.0962 5.58055 11.134 5.63533 11.1813 5.68121C11.2287 5.72709 11.2846 5.76314 11.346 5.78731C11.4073 5.81147 11.4728 5.82327 11.5387 5.82201C11.6047 5.82076 11.6697 5.80648 11.7301 5.78C11.7911 5.7559 11.8467 5.71977 11.8936 5.67376C11.9404 5.62776 11.9775 5.5728 12.0027 5.51217C12.0279 5.45154 12.0406 5.38647 12.0402 5.32082C12.0397 5.25517 12.0261 5.19028 12.0001 5.13C11.9284 4.96831 11.8304 4.81963 11.7101 4.69C11.5779 4.56082 11.4216 4.45888 11.2501 4.39V4.21C11.2501 4.07739 11.1974 3.95021 11.1036 3.85645C11.0098 3.76268 10.8827 3.71 10.7501 3.71C10.6175 3.71 10.4903 3.76268 10.3965 3.85645C10.3027 3.95021 10.2501 4.07739 10.2501 4.21V4.39C9.9675 4.50963 9.7337 4.72131 9.58665 4.99062C9.4396 5.25993 9.38795 5.57106 9.44009 5.87344C9.49222 6.17582 9.64508 6.45169 9.87382 6.65621C10.1026 6.86073 10.3938 6.98189 10.7001 7ZM6.56006 12.21H8.47006C8.60267 12.21 8.72984 12.1573 8.82361 12.0636C8.91738 11.9698 8.97006 11.8426 8.97006 11.71C8.97006 11.5774 8.91738 11.4502 8.82361 11.3564C8.72984 11.2627 8.60267 11.21 8.47006 11.21H6.56006C6.42745 11.21 6.30027 11.2627 6.20651 11.3564C6.11274 11.4502 6.06006 11.5774 6.06006 11.71C6.06006 11.8426 6.11274 11.9698 6.20651 12.0636C6.30027 12.1573 6.42745 12.21 6.56006 12.21ZM14.8301 11.21H10.5001C10.3675 11.21 10.2403 11.2627 10.1465 11.3564C10.0527 11.4502 10.0001 11.5774 10.0001 11.71C10.0001 11.8426 10.0527 11.9698 10.1465 12.0636C10.2403 12.1573 10.3675 12.21 10.5001 12.21H14.8301C14.9627 12.21 15.0898 12.1573 15.1836 12.0636C15.2774 11.9698 15.3301 11.8426 15.3301 11.71C15.3301 11.5774 15.2774 11.4502 15.1836 11.3564C15.0898 11.2627 14.9627 11.21 14.8301 11.21ZM14.8301 13.1H12.9201C12.7875 13.1 12.6603 13.1527 12.5665 13.2464C12.4727 13.3402 12.4201 13.4674 12.4201 13.6C12.4201 13.7326 12.4727 13.8598 12.5665 13.9536C12.6603 14.0473 12.7875 14.1 12.9201 14.1H14.8301C14.9627 14.1 15.0898 14.0473 15.1836 13.9536C15.2774 13.8598 15.3301 13.7326 15.3301 13.6C15.3301 13.4674 15.2774 13.3402 15.1836 13.2464C15.0898 13.1527 14.9627 13.1 14.8301 13.1ZM6.56006 14.1H10.9001C11.0327 14.1 11.1598 14.0473 11.2536 13.9536C11.3474 13.8598 11.4001 13.7326 11.4001 13.6C11.4001 13.4674 11.3474 13.3402 11.2536 13.2464C11.1598 13.1527 11.0327 13.1 10.9001 13.1H6.56006C6.42745 13.1 6.30027 13.1527 6.20651 13.2464C6.11274 13.3402 6.06006 13.4674 6.06006 13.6C6.06006 13.7326 6.11274 13.8598 6.20651 13.9536C6.30027 14.0473 6.42745 14.1 6.56006 14.1ZM6.56006 16H8.47006C8.60267 16 8.72984 15.9473 8.82361 15.8536C8.91738 15.7598 8.97006 15.6326 8.97006 15.5C8.97006 15.3674 8.91738 15.2402 8.82361 15.1464C8.72984 15.0527 8.60267 15 8.47006 15H6.56006C6.42745 15 6.30027 15.0527 6.20651 15.1464C6.11274 15.2402 6.06006 15.3674 6.06006 15.5C6.06006 15.6326 6.11274 15.7598 6.20651 15.8536C6.30027 15.9473 6.42745 16 6.56006 16ZM14.8301 15H10.5001C10.3675 15 10.2403 15.0527 10.1465 15.1464C10.0527 15.2402 10.0001 15.3674 10.0001 15.5C10.0001 15.6326 10.0527 15.7598 10.1465 15.8536C10.2403 15.9473 10.3675 16 10.5001 16H14.8301C14.9627 16 15.0898 15.9473 15.1836 15.8536C15.2774 15.7598 15.3301 15.6326 15.3301 15.5C15.3301 15.3674 15.2774 15.2402 15.1836 15.1464C15.0898 15.0527 14.9627 15 14.8301 15ZM14.8301 16.89H12.9201C12.7875 16.89 12.6603 16.9427 12.5665 17.0364C12.4727 17.1302 12.4201 17.2574 12.4201 17.39C12.4201 17.5226 12.4727 17.6498 12.5665 17.7436C12.6603 17.8373 12.7875 17.89 12.9201 17.89H14.8301C14.9627 17.89 15.0898 17.8373 15.1836 17.7436C15.2774 17.6498 15.3301 17.5226 15.3301 17.39C15.3301 17.2574 15.2774 17.1302 15.1836 17.0364C15.0898 16.9427 14.9627 16.89 14.8301 16.89ZM6.56006 17.89H10.9001C11.0327 17.89 11.1598 17.8373 11.2536 17.7436C11.3474 17.6498 11.4001 17.5226 11.4001 17.39C11.4001 17.2574 11.3474 17.1302 11.2536 17.0364C11.1598 16.9427 11.0327 16.89 10.9001 16.89H6.56006C6.42745 16.89 6.30027 16.9427 6.20651 17.0364C6.11274 17.1302 6.06006 17.2574 6.06006 17.39C6.06006 17.5226 6.11274 17.6498 6.20651 17.7436C6.30027 17.8373 6.42745 17.89 6.56006 17.89ZM8.47006 18.78H6.56006C6.42745 18.78 6.30027 18.8327 6.20651 18.9264C6.11274 19.0202 6.06006 19.1474 6.06006 19.28C6.06006 19.4126 6.11274 19.5398 6.20651 19.6336C6.30027 19.7273 6.42745 19.78 6.56006 19.78H8.47006C8.60267 19.78 8.72984 19.7273 8.82361 19.6336C8.91738 19.5398 8.97006 19.4126 8.97006 19.28C8.97006 19.1474 8.91738 19.0202 8.82361 18.9264C8.72984 18.8327 8.60267 18.78 8.47006 18.78ZM14.8301 18.78H10.5001C10.3675 18.78 10.2403 18.8327 10.1465 18.9264C10.0527 19.0202 10.0001 19.1474 10.0001 19.28C10.0001 19.4126 10.0527 19.5398 10.1465 19.6336C10.2403 19.7273 10.3675 19.78 10.5001 19.78H14.8301C14.9627 19.78 15.0898 19.7273 15.1836 19.6336C15.2774 19.5398 15.3301 19.4126 15.3301 19.28C15.3301 19.1474 15.2774 19.0202 15.1836 18.9264C15.0898 18.8327 14.9627 18.78 14.8301 18.78Z" fill="#141414"/>
</svg>
