<svg width="24" height="24" viewBox="0 0 24 24" fill="none" xmlns="http://www.w3.org/2000/svg">
<path d="M12 1.479C9.21064 1.48218 6.53642 2.59166 4.56404 4.56404C2.59166 6.53642 1.48218 9.21064 1.479 12C1.479 14.811 2.574 17.4525 4.5615 19.4385C5.53584 20.4188 6.69501 21.196 7.97187 21.7251C9.24872 22.2543 10.6179 22.5248 12 22.521C14.7894 22.5178 17.4636 21.4083 19.436 19.436C21.4083 17.4636 22.5178 14.7894 22.521 12C22.5178 9.21064 21.4083 6.53642 19.436 4.56404C17.4636 2.59166 14.7894 1.48218 12 1.479ZM12 2.979C14.3917 2.98178 16.6846 3.9331 18.3757 5.62426C20.0669 7.31543 21.0182 9.60834 21.021 12C21.019 14.2682 20.1583 16.4515 18.612 18.111C17.5913 16.9026 16.2622 15.9934 14.766 15.48C15.2854 15.0588 15.7044 14.527 15.9924 13.9235C16.2804 13.3199 16.4303 12.6598 16.431 11.991C16.4292 11.3996 16.3108 10.8144 16.0825 10.2689C15.8542 9.72336 15.5205 9.22824 15.1005 8.81189C14.6806 8.39554 14.1826 8.06615 13.6351 7.84257C13.0876 7.619 12.5014 7.50565 11.91 7.509C11.3189 7.51077 10.7339 7.6291 10.1886 7.85722C9.64326 8.08534 9.14827 8.41877 8.73196 8.83843C8.31565 9.25808 7.98619 9.75572 7.76244 10.3029C7.53869 10.85 7.42504 11.4359 7.428 12.027C7.428 13.4205 8.082 14.652 9.084 15.474C7.61827 15.9736 6.31096 16.8523 5.295 18.021C3.80105 16.3719 2.97532 14.2252 2.979 12C2.98178 9.60834 3.9331 7.31543 5.62426 5.62426C7.31543 3.9331 9.60834 2.98178 12 2.979ZM11.9475 9.009C13.593 9.009 14.9295 10.347 14.9295 12.027C14.9276 12.7997 14.6258 13.5415 14.0877 14.0961C13.5496 14.6507 12.8173 14.9747 12.045 15C12.0015 15 11.9595 14.991 11.916 14.991C11.8785 14.991 11.8425 14.9985 11.805 15C11.0291 14.9696 10.2954 14.6387 9.75902 14.0772C9.22267 13.5156 8.92574 12.7675 8.931 11.991C8.931 10.347 10.2675 9.009 11.9475 9.009ZM11.8035 16.497C11.8395 16.4985 11.8755 16.509 11.9115 16.509H11.9475C11.9805 16.509 12.0075 16.4985 12.0405 16.497C13.0869 16.5153 14.1171 16.7596 15.0603 17.2132C16.0034 17.6668 16.8374 18.319 17.505 19.125C15.9328 20.3533 13.9951 21.0206 12 21.021C9.95969 21.0251 7.97924 20.3318 6.387 19.056C7.05631 18.2692 7.88555 17.6341 8.81951 17.1928C9.75346 16.7516 10.7707 16.5144 11.8035 16.497Z" fill="#141414"/>
</svg>
