<svg width="24" height="24" viewBox="0 0 24 24" fill="none" xmlns="http://www.w3.org/2000/svg">
<path d="M20.0323 19.995H3.96729C3.12221 19.994 2.31204 19.6579 1.71448 19.0603C1.11692 18.4627 0.780778 17.6526 0.779785 16.8075V7.1925C0.780778 6.34742 1.11692 5.53725 1.71448 4.93969C2.31204 4.34213 3.12221 4.00599 3.96729 4.005H20.0323C20.8774 4.00599 21.6875 4.34213 22.2851 4.93969C22.8827 5.53725 23.2188 6.34742 23.2198 7.1925V16.8075C23.2188 17.6526 22.8827 18.4627 22.2851 19.0603C21.6875 19.6579 20.8774 19.994 20.0323 19.995ZM3.96729 5.13C3.42028 5.13 2.89567 5.3473 2.50888 5.73409C2.12208 6.12088 1.90479 6.64549 1.90479 7.1925V16.8075C1.90479 17.3545 2.12208 17.8791 2.50888 18.2659C2.89567 18.6527 3.42028 18.87 3.96729 18.87H20.0323C20.5793 18.87 21.1039 18.6527 21.4907 18.2659C21.8775 17.8791 22.0948 17.3545 22.0948 16.8075V7.1925C22.0948 6.64549 21.8775 6.12088 21.4907 5.73409C21.1039 5.3473 20.5793 5.13 20.0323 5.13H3.96729Z" fill="#141414"/>
<path d="M11.9999 14.28C11.306 14.2811 10.6307 14.056 10.0762 13.6388L1.31993 7.01625C1.25806 6.97283 1.20558 6.91739 1.16562 6.85324C1.12566 6.78908 1.09903 6.71753 1.08734 6.64286C1.07565 6.56818 1.07912 6.49192 1.09756 6.41862C1.116 6.34532 1.14902 6.27649 1.19465 6.21623C1.24028 6.15598 1.29759 6.10554 1.36315 6.06793C1.42871 6.03031 1.50117 6.0063 1.57622 5.99732C1.65127 5.98834 1.72736 5.99457 1.79994 6.01565C1.87252 6.03673 1.94012 6.07222 1.99868 6.12L10.7549 12.75C11.1145 13.0184 11.5512 13.1634 11.9999 13.1634C12.4486 13.1634 12.8853 13.0184 13.2449 12.75L22.0012 6.12C22.0597 6.07222 22.1273 6.03673 22.1999 6.01565C22.2725 5.99457 22.3486 5.98834 22.4236 5.99732C22.4987 6.0063 22.5712 6.03031 22.6367 6.06793C22.7023 6.10554 22.7596 6.15598 22.8052 6.21623C22.8508 6.27649 22.8839 6.34532 22.9023 6.41862C22.9207 6.49192 22.9242 6.56818 22.9125 6.64286C22.9008 6.71753 22.8742 6.78908 22.8342 6.85324C22.7943 6.91739 22.7418 6.97283 22.6799 7.01625L13.9237 13.6388C13.3692 14.056 12.6938 14.2811 11.9999 14.28Z" fill="#141414"/>
<path d="M1.56381 18.4275C1.44973 18.4277 1.33829 18.3931 1.24428 18.3285C1.15028 18.2639 1.07815 18.1722 1.03747 18.0656C0.996785 17.959 0.989475 17.8426 1.01651 17.7317C1.04354 17.6209 1.10363 17.5209 1.18882 17.445L8.08881 11.2913C8.20021 11.1918 8.34654 11.1407 8.49563 11.1491C8.64473 11.1575 8.78436 11.2249 8.88381 11.3363C8.98327 11.4476 9.0344 11.594 9.02596 11.7431C9.01753 11.8922 8.95021 12.0318 8.83881 12.1313L1.93881 18.285C1.83635 18.3782 1.70234 18.4292 1.56381 18.4275ZM22.4363 18.4275C22.2978 18.4292 22.1638 18.3782 22.0613 18.285L15.1613 12.1313C15.0499 12.0318 14.9826 11.8922 14.9742 11.7431C14.9657 11.594 15.0169 11.4476 15.1163 11.3363C15.2158 11.2249 15.3554 11.1575 15.5045 11.1491C15.6536 11.1407 15.7999 11.1918 15.9113 11.2913L22.8076 17.445C22.8927 17.5209 22.9528 17.6209 22.9799 17.7317C23.0069 17.8426 22.9996 17.959 22.9589 18.0656C22.9182 18.1722 22.8461 18.2639 22.7521 18.3285C22.6581 18.3931 22.5466 18.4277 22.4326 18.4275H22.4363Z" fill="#141414"/>
</svg>
