<svg width="24" height="24" viewBox="0 0 24 24" fill="none" xmlns="http://www.w3.org/2000/svg">
<g clip-path="url(#clip0_28_547)">
<path d="M18.9913 6.49565L13.9304 17.4C13.487 18.5217 12.7043 19.1739 11.8435 19.1739C11.1391 19.1739 10.5391 18.8087 10.2 18.2348C9.83478 17.5565 9.86087 16.7217 10.3043 16.0174L16.9304 5.4C17.2696 4.87826 17.9478 4.69565 18.4957 4.98261C19.0435 5.26957 19.2522 5.92174 18.9913 6.49565ZM20.7652 9.65217C20.3739 9.23478 19.7217 9.2087 19.2783 9.6C18.8609 9.9913 18.8348 10.6435 19.2261 11.087C20.9478 12.9652 21.913 15.4174 21.913 18C21.913 18.5739 22.3826 19.0435 22.9565 19.0435C23.5304 19.0435 24 18.5739 24 18C24 14.8957 22.8522 11.9217 20.7652 9.65217ZM12.8348 7.93043C13.4087 7.98261 13.9043 7.56522 13.9565 6.9913C14.0087 6.41739 13.5913 5.92174 13.0174 5.86957C12.6783 5.84348 12.3391 5.81739 12 5.81739C5.37391 5.81739 0 11.2957 0 18.0261C0 18.6 0.469565 19.0696 1.04348 19.0696C1.61739 19.0696 2.08696 18.6 2.08696 18.0261C2.08696 12.4435 6.52174 7.90435 12 7.90435C12.287 7.87826 12.5739 7.90435 12.8348 7.93043Z" fill="#141414"/>
</g>
<defs>
<clipPath id="clip0_28_547">
<rect width="24" height="24" fill="white"/>
</clipPath>
</defs>
</svg>
