<svg width="24" height="24" viewBox="0 0 24 24" fill="none" xmlns="http://www.w3.org/2000/svg">
<path fill-rule="evenodd" clip-rule="evenodd" d="M3.5 4C3.5 2.61929 4.61929 1.5 6 1.5H18C19.3807 1.5 20.5 2.61929 20.5 4V16.9577C20.5 17.2339 20.2761 17.4577 20 17.4577C19.7239 17.4577 19.5 17.2339 19.5 16.9577V4C19.5 3.17157 18.8284 2.5 18 2.5H6C5.17157 2.5 4.5 3.17157 4.5 4V20C4.5 20.8284 5.17157 21.5 6 21.5H18C18.8284 21.5 19.5 20.8284 19.5 20C19.5 19.7239 19.7239 19.5 20 19.5C20.2761 19.5 20.5 19.7239 20.5 20C20.5 21.3807 19.3807 22.5 18 22.5H6C4.61929 22.5 3.5 21.3807 3.5 20V4Z" fill="#141414"/>
<path fill-rule="evenodd" clip-rule="evenodd" d="M7.49982 2C7.49982 1.72386 7.72368 1.5 7.99982 1.5H15.9998C16.2759 1.5 16.4998 1.72386 16.4998 2V3C16.4998 4.38071 15.3805 5.5 13.9998 5.5H12.8342C12.558 5.5 12.3342 5.27614 12.3342 5C12.3342 4.72386 12.558 4.5 12.8342 4.5H13.9998C14.8282 4.5 15.4998 3.82843 15.4998 3V2.5H8.49982V3C8.49982 3.82843 9.17139 4.5 9.99982 4.5C10.2759 4.5 10.4998 4.72386 10.4998 5C10.4998 5.27614 10.2759 5.5 9.99982 5.5C8.61911 5.5 7.49982 4.38071 7.49982 3V2ZM12.4998 17C12.4998 16.7239 12.7237 16.5 12.9998 16.5H16.9998C17.2759 16.5 17.4998 16.7239 17.4998 17C17.4998 17.2761 17.2759 17.5 16.9998 17.5H12.9998C12.7237 17.5 12.4998 17.2761 12.4998 17ZM12.4998 9C12.4998 8.72386 12.7237 8.5 12.9998 8.5H16.9998C17.2759 8.5 17.4998 8.72386 17.4998 9C17.4998 9.27614 17.2759 9.5 16.9998 9.5H12.9998C12.7237 9.5 12.4998 9.27614 12.4998 9ZM7.30661 7.58579C7.50187 7.39053 7.81845 7.39053 8.01371 7.58579L10.135 9.70711C10.3303 9.90237 10.3303 10.219 10.135 10.4142C9.93977 10.6095 9.62319 10.6095 9.42793 10.4142L7.30661 8.2929C7.11134 8.09764 7.11134 7.78105 7.30661 7.58579Z" fill="#141414"/>
<path fill-rule="evenodd" clip-rule="evenodd" d="M10.1354 7.58579C9.94015 7.39053 9.62357 7.39053 9.4283 7.58579L7.30699 9.70711C7.11173 9.90237 7.11173 10.219 7.30699 10.4142C7.50226 10.6095 7.81884 10.6095 8.0141 10.4142L10.1354 8.2929C10.3307 8.09764 10.3307 7.78105 10.1354 7.58579ZM10.7779 14.2594C10.996 14.4288 11.0355 14.7429 10.8661 14.961L8.81747 17.5987C8.72624 17.7162 8.58744 17.7869 8.43878 17.7918C8.29012 17.7966 8.14703 17.735 8.04838 17.6236L6.59701 15.9859C6.41385 15.7793 6.43291 15.4633 6.63958 15.2801C6.84624 15.097 7.16225 15.116 7.3454 15.3227L8.39722 16.5095L10.0763 14.3476C10.2457 14.1295 10.5598 14.09 10.7779 14.2594Z" fill="#141414"/>
</svg>
