<svg width="24" height="24" viewBox="0 0 24 24" fill="none" xmlns="http://www.w3.org/2000/svg">
<path d="M21.5004 17.2837C22.4019 15.6686 22.8752 13.8497 22.8752 12C22.8752 10.1503 22.4019 8.33138 21.5004 6.71625C21.4957 6.66373 21.4797 6.61285 21.4534 6.56714C21.4271 6.52143 21.3912 6.48197 21.3482 6.4515C20.1324 4.40204 18.2771 2.80864 16.0675 1.91629C13.858 1.02394 11.4165 0.882031 9.11839 1.51238C6.82033 2.14274 4.79292 3.51045 3.34786 5.40526C1.90281 7.30006 1.12012 9.61705 1.12012 12C1.12012 14.383 1.90281 16.6999 3.34786 18.5947C4.79292 20.4895 6.82033 21.8573 9.11839 22.4876C11.4165 23.118 13.858 22.9761 16.0675 22.0837C18.2771 21.1914 20.1324 19.598 21.3482 17.5485C21.3912 17.518 21.4271 17.4786 21.4534 17.4329C21.4797 17.3871 21.4957 17.3363 21.5004 17.2837ZM5.76768 17.625H7.4848C7.84433 19.0401 8.50158 20.3623 9.41268 21.5032C7.81023 20.6387 6.53128 19.2779 5.76768 17.625ZM1.88455 12.375H3.7573C3.7915 13.9135 4.08618 15.435 4.6288 16.875H3.1288C2.36664 15.4934 1.9404 13.9519 1.88455 12.375ZM3.12955 7.125H4.62955C4.08693 8.565 3.79225 10.0865 3.75805 11.625H1.88455C1.94063 10.0481 2.36713 8.5065 3.12955 7.125ZM18.2327 6.375H16.5156C16.156 4.95987 15.4988 3.6377 14.5877 2.49675C16.1901 3.36128 17.4691 4.72207 18.2327 6.375ZM22.1158 11.625H20.2431C20.2089 10.0865 19.9142 8.565 19.3716 7.125H20.8716C21.6337 8.50657 22.06 10.0481 22.1158 11.625ZM19.4931 11.625H17.2457C17.2295 10.1101 17.0501 8.60142 16.7106 7.125H18.5709C19.1462 8.55741 19.4585 10.0818 19.4931 11.625ZM11.6252 7.125V11.625H7.50468C7.52476 10.1082 7.71673 8.59855 8.07693 7.125H11.6252ZM8.28393 6.375C9.03393 3.90525 10.2534 2.18363 11.6252 1.91475V6.375H8.28393ZM11.6252 12.375V16.875H8.07693C7.71673 15.4014 7.52476 13.8918 7.50468 12.375H11.6252ZM11.6252 17.625V22.0852C10.2534 21.8164 9.0343 20.0948 8.28393 17.625H11.6252ZM12.3752 16.875V12.375H16.4957C16.4756 13.8918 16.2836 15.4014 15.9234 16.875H12.3752ZM15.7164 17.625C14.9664 20.0948 13.7466 21.8164 12.3752 22.0852V17.625H15.7164ZM12.3752 11.625V7.125H15.9234C16.2836 8.59855 16.4756 10.1082 16.4957 11.625H12.3752ZM12.3752 6.375V1.91475C13.7466 2.18363 14.9657 3.90525 15.7164 6.375H12.3752ZM9.41268 2.49675C8.50158 3.6377 7.84433 4.95987 7.4848 6.375H5.76768C6.53128 4.72207 7.81023 3.36128 9.41268 2.49675ZM7.28943 7.125C6.95006 8.60144 6.77077 10.1101 6.75468 11.625H4.5073C4.54169 10.0818 4.85393 8.55744 5.42905 7.125H7.28943ZM4.5073 12.375H6.75468C6.77077 13.8899 6.95006 15.3986 7.28943 16.875H5.42905C4.85393 15.4426 4.54169 13.9182 4.5073 12.375ZM14.5877 21.5032C15.4988 20.3623 16.156 19.0401 16.5156 17.625H18.2327C17.4691 19.2779 16.1901 20.6387 14.5877 21.5032ZM16.7106 16.875C17.0501 15.3986 17.2295 13.8899 17.2457 12.375H19.4931C19.4585 13.9182 19.1462 15.4426 18.5709 16.875H16.7106ZM20.2431 12.375H22.1158C22.0597 13.9519 21.6332 15.4935 20.8708 16.875H19.3708C19.9137 15.435 20.2086 13.9135 20.2431 12.375ZM20.4141 6.375H19.0584C18.4849 5.09406 17.6554 3.94398 16.6209 2.9955C18.1502 3.78389 19.4551 4.94648 20.4141 6.375ZM7.37905 2.9955C6.34482 3.9441 5.51546 5.09416 4.94193 6.375H3.5863C4.54512 4.9465 5.84988 3.7839 7.37905 2.9955ZM3.5863 17.625H4.94193C5.51557 18.9059 6.34506 20.0559 7.37943 21.0045C5.85012 20.2162 4.54522 19.0536 3.5863 17.625ZM16.6209 21.0045C17.6554 20.056 18.4849 18.9059 19.0584 17.625H20.4141C19.4551 19.0535 18.1502 20.2161 16.6209 21.0045Z" fill="#141414"/>
</svg>
