<svg width="24" height="24" viewBox="0 0 24 24" fill="none" xmlns="http://www.w3.org/2000/svg">
<path d="M10.1025 16.695C9.94796 16.5712 9.84862 16.3914 9.82614 16.1947C9.80366 15.998 9.85987 15.8004 9.9825 15.645L11.9325 13.185H9.75L11.475 9.435C11.5162 9.34522 11.5747 9.26446 11.6472 9.19736C11.7197 9.13027 11.8047 9.07815 11.8974 9.044C11.9901 9.00985 12.0886 8.99435 12.1873 8.99838C12.286 9.00241 12.3829 9.0259 12.4725 9.0675C12.5623 9.10869 12.643 9.16721 12.7101 9.23969C12.7772 9.31218 12.8293 9.39721 12.8635 9.48989C12.8976 9.58258 12.9131 9.6811 12.9091 9.77979C12.9051 9.87848 12.8816 9.97541 12.84 10.065L12.09 11.6475H15L11.13 16.5375C11.0123 16.6914 10.8395 16.7938 10.648 16.8231C10.4564 16.8525 10.2609 16.8066 10.1025 16.695Z" fill="#141414"/>
<path d="M7.5 12.285C7.5 11.8708 7.16421 11.535 6.75 11.535C6.33579 11.535 6 11.8708 6 12.285V13.785C6 14.1992 6.33579 14.535 6.75 14.535C7.16421 14.535 7.5 14.1992 7.5 13.785V12.285Z" fill="#141414"/>
<path d="M15.9675 3.75V2.61C15.9675 2.36574 15.9194 2.12387 15.8259 1.89821C15.7324 1.67254 15.5954 1.4675 15.4227 1.29478C15.25 1.12206 15.045 0.985058 14.8193 0.891584C14.5936 0.79811 14.3518 0.75 14.1075 0.75H9.8925C9.3992 0.75 8.9261 0.945964 8.57728 1.29478C8.22846 1.6436 8.0325 2.1167 8.0325 2.61V3.75C7.48666 3.76944 6.96968 4.00003 6.59052 4.39317C6.21137 4.78632 5.99965 5.31131 6 5.8575V9.1425C6 9.34141 6.07902 9.53218 6.21967 9.67283C6.36032 9.81348 6.55109 9.8925 6.75 9.8925C6.94891 9.8925 7.13968 9.81348 7.28033 9.67283C7.42098 9.53218 7.5 9.34141 7.5 9.1425V5.8575C7.5 5.69638 7.564 5.54186 7.67793 5.42793C7.79186 5.314 7.94638 5.25 8.1075 5.25H15.8925C16.0536 5.25 16.2081 5.314 16.3221 5.42793C16.436 5.54186 16.5 5.69638 16.5 5.8575V21.1425C16.5 21.3036 16.436 21.4581 16.3221 21.5721C16.2081 21.686 16.0536 21.75 15.8925 21.75H8.1075C7.94638 21.75 7.79186 21.686 7.67793 21.5721C7.564 21.4581 7.5 21.3036 7.5 21.1425V16.92C7.5 16.7211 7.42098 16.5303 7.28033 16.3897C7.13968 16.249 6.94891 16.17 6.75 16.17C6.55109 16.17 6.36032 16.249 6.21967 16.3897C6.07902 16.5303 6 16.7211 6 16.92V21.1425C6 21.4193 6.05451 21.6933 6.16042 21.949C6.26634 22.2047 6.42157 22.437 6.61727 22.6327C6.81297 22.8284 7.0453 22.9837 7.30099 23.0896C7.55669 23.1955 7.83074 23.25 8.1075 23.25H15.8925C16.4514 23.25 16.9875 23.028 17.3827 22.6327C17.778 22.2375 18 21.7014 18 21.1425V5.8575C18.0003 5.31131 17.7886 4.78632 17.4095 4.39317C17.0303 4.00003 16.5133 3.76944 15.9675 3.75ZM14.4675 3.75H9.5325V2.61C9.5325 2.51452 9.57043 2.42295 9.63794 2.35544C9.70546 2.28793 9.79702 2.25 9.8925 2.25H14.1075C14.1548 2.25 14.2016 2.25931 14.2453 2.2774C14.2889 2.2955 14.3286 2.32201 14.3621 2.35544C14.3955 2.38887 14.422 2.42856 14.4401 2.47223C14.4582 2.51591 14.4675 2.56272 14.4675 2.61V3.75Z" fill="#141414"/>
</svg>
