<svg width="24" height="24" viewBox="0 0 24 24" fill="none" xmlns="http://www.w3.org/2000/svg">
<g clip-path="url(#clip0_28_631)">
<path d="M18.375 12.75C17.2625 12.75 16.1749 13.0799 15.2499 13.698C14.3249 14.3161 13.6039 15.1946 13.1782 16.2224C12.7524 17.2502 12.641 18.3812 12.8581 19.4724C13.0751 20.5635 13.6109 21.5658 14.3975 22.3525C15.1842 23.1392 16.1865 23.6749 17.2776 23.8919C18.3688 24.109 19.4998 23.9976 20.5276 23.5718C21.5554 23.1461 22.4339 22.4251 23.052 21.5001C23.6701 20.5751 24 19.4875 24 18.375C23.9984 16.8837 23.4052 15.4539 22.3507 14.3993C21.2961 13.3448 19.8663 12.7516 18.375 12.75ZM18.375 23.25C17.4108 23.25 16.4683 22.9641 15.6666 22.4284C14.8649 21.8927 14.2401 21.1314 13.8711 20.2406C13.5021 19.3498 13.4056 18.3696 13.5937 17.4239C13.7818 16.4783 14.2461 15.6096 14.9279 14.9279C15.6096 14.2461 16.4783 13.7818 17.4239 13.5937C18.3696 13.4056 19.3498 13.5021 20.2406 13.8711C21.1314 14.2401 21.8927 14.8649 22.4284 15.6666C22.9641 16.4683 23.25 17.4108 23.25 18.375C23.2485 19.6675 22.7344 20.9066 21.8205 21.8205C20.9066 22.7344 19.6675 23.2485 18.375 23.25ZM18.375 16.5C18.5739 16.5001 18.7646 16.5792 18.9052 16.7198C19.0458 16.8604 19.1249 17.0511 19.125 17.25C19.125 17.3495 19.1645 17.4448 19.2348 17.5152C19.3052 17.5855 19.4005 17.625 19.5 17.625C19.5995 17.625 19.6948 17.5855 19.7652 17.5152C19.8355 17.4448 19.875 17.3495 19.875 17.25C19.8739 16.9184 19.7629 16.5965 19.5594 16.3347C19.3558 16.0729 19.0711 15.886 18.75 15.8033V15.375C18.75 15.2755 18.7105 15.1802 18.6402 15.1098C18.5698 15.0395 18.4745 15 18.375 15C18.2755 15 18.1802 15.0395 18.1098 15.1098C18.0395 15.1802 18 15.2755 18 15.375V15.8033C17.6466 15.8938 17.3385 16.1104 17.1335 16.4122C16.9285 16.714 16.8408 17.0802 16.8869 17.4421C16.9329 17.8041 17.1096 18.1367 17.3836 18.3775C17.6576 18.6183 18.0102 18.7508 18.375 18.75C18.5233 18.75 18.6683 18.794 18.7917 18.8764C18.915 18.9588 19.0111 19.0759 19.0679 19.213C19.1247 19.35 19.1395 19.5008 19.1106 19.6463C19.0816 19.7918 19.0102 19.9254 18.9053 20.0303C18.8004 20.1352 18.6668 20.2067 18.5213 20.2356C18.3758 20.2645 18.225 20.2497 18.088 20.1929C17.9509 20.1361 17.8338 20.04 17.7514 19.9167C17.669 19.7933 17.625 19.6483 17.625 19.5C17.625 19.4005 17.5855 19.3052 17.5152 19.2348C17.4448 19.1645 17.3495 19.125 17.25 19.125C17.1505 19.125 17.0552 19.1645 16.9848 19.2348C16.9145 19.3052 16.875 19.4005 16.875 19.5C16.8761 19.8316 16.9871 20.1535 17.1906 20.4153C17.3942 20.6771 17.6788 20.864 18 20.9468V21.375C18 21.4745 18.0395 21.5698 18.1098 21.6402C18.1802 21.7105 18.2755 21.75 18.375 21.75C18.4745 21.75 18.5698 21.7105 18.6402 21.6402C18.7105 21.5698 18.75 21.4745 18.75 21.375V20.9468C19.1034 20.8562 19.4115 20.6396 19.6165 20.3378C19.8215 20.036 19.9092 19.6698 19.8631 19.3079C19.8171 18.946 19.6404 18.6133 19.3664 18.3725C19.0924 18.1317 18.7398 17.9992 18.375 18C18.1761 18 17.9853 17.921 17.8447 17.7803C17.704 17.6397 17.625 17.4489 17.625 17.25C17.625 17.0511 17.704 16.8603 17.8447 16.7197C17.9853 16.579 18.1761 16.5 18.375 16.5ZM13.875 6H17.625C17.9233 6.00033 18.2092 6.11896 18.4201 6.32987C18.631 6.54078 18.7497 6.82674 18.75 7.125V9.96976L18.3296 9.54934C18.259 9.4802 18.164 9.44169 18.0652 9.44219C17.9665 9.44269 17.8719 9.48215 17.802 9.55201C17.7321 9.62186 17.6927 9.71646 17.6922 9.81525C17.6917 9.91404 17.7302 10.009 17.7993 10.0796L18.8594 11.1397C18.9299 11.21 19.0254 11.2495 19.125 11.2495C19.2246 11.2495 19.3201 11.21 19.3906 11.1397L20.4507 10.0796C20.5198 10.009 20.5583 9.91404 20.5578 9.81525C20.5574 9.71646 20.5179 9.62186 20.448 9.55201C20.3782 9.48215 20.2836 9.44269 20.1848 9.44219C20.086 9.44169 19.991 9.4802 19.9204 9.54934L19.5 9.96976V7.125C19.4995 6.62787 19.3018 6.15122 18.9503 5.79969C18.5988 5.44816 18.1221 5.25047 17.625 5.25H13.875C13.7755 5.25 13.6802 5.28951 13.6098 5.35984C13.5395 5.43017 13.5 5.52555 13.5 5.625C13.5 5.72446 13.5395 5.81984 13.6098 5.89017C13.6802 5.9605 13.7755 6 13.875 6ZM10.875 18.75H10.8742L7.12718 18.7566H7.125C6.82665 18.7565 6.54055 18.638 6.32959 18.427C6.11863 18.216 6.00007 17.9299 6 17.6316V14.7868L6.42041 15.2073C6.49097 15.2764 6.58596 15.3149 6.68475 15.3144C6.78354 15.3139 6.87814 15.2744 6.94799 15.2046C7.01785 15.1347 7.05731 15.0401 7.05781 14.9414C7.05831 14.8426 7.01981 14.7476 6.95066 14.677L5.90423 13.6306C5.87008 13.5897 5.82737 13.5568 5.77912 13.5343C5.73087 13.5117 5.67826 13.5 5.62499 13.5C5.57173 13.5 5.51912 13.5117 5.47087 13.5343C5.42262 13.5568 5.37991 13.5897 5.34576 13.6306L4.29931 14.677C4.23017 14.7476 4.19166 14.8426 4.19216 14.9414C4.19266 15.0401 4.23212 15.1347 4.30198 15.2046C4.37183 15.2744 4.46643 15.3139 4.56522 15.3144C4.66401 15.3149 4.759 15.2764 4.82956 15.2073L5.25 14.7869V17.6316C5.2499 17.8779 5.29833 18.1217 5.39252 18.3493C5.48671 18.5768 5.62482 18.7835 5.79895 18.9577C5.97308 19.1318 6.17982 19.2699 6.40735 19.3641C6.63488 19.4583 6.87874 19.5067 7.125 19.5066H7.12866L10.8757 19.5C10.9752 19.4999 11.0705 19.4603 11.1408 19.3899C11.2111 19.3195 11.2505 19.2241 11.2504 19.1246C11.2503 19.0252 11.2107 18.9298 11.1403 18.8596C11.0699 18.7893 10.9745 18.7499 10.875 18.75ZM10.2429 1.75708C10.2377 1.75183 10.2306 1.75012 10.2251 1.74522C9.10299 0.62754 7.58376 0 6 0C4.41624 0 2.89701 0.62754 1.77493 1.74522C1.76944 1.75012 1.76235 1.75182 1.75708 1.75708C1.75182 1.76235 1.75012 1.76944 1.74522 1.77493C0.62754 2.89701 0 4.41624 0 6C0 7.58376 0.62754 9.10299 1.74522 10.2251C1.75012 10.2306 1.75182 10.2377 1.75708 10.2429C1.76235 10.2482 1.76944 10.2499 1.77493 10.2548C2.89701 11.3725 4.41624 12 6 12C7.58376 12 9.10299 11.3725 10.2251 10.2548C10.2306 10.2499 10.2377 10.2482 10.2429 10.2429C10.2482 10.2377 10.2499 10.2306 10.2548 10.2251C11.3725 9.10299 12 7.58376 12 6C12 4.41624 11.3725 2.89701 10.2548 1.77493C10.2499 1.76944 10.2482 1.76235 10.2429 1.75708ZM10.875 6.375H11.231C11.1511 7.50478 10.7061 8.57795 9.96295 9.43268L9.71191 9.18164C9.64135 9.11249 9.54636 9.07399 9.44757 9.07449C9.34878 9.07498 9.25418 9.11445 9.18433 9.18431C9.11447 9.25416 9.07501 9.34876 9.07451 9.44755C9.07401 9.54634 9.11252 9.64133 9.18166 9.71189L9.4327 9.96293C8.57797 10.7061 7.50479 11.1511 6.375 11.231V10.875C6.375 10.7755 6.33549 10.6802 6.26516 10.6098C6.19484 10.5395 6.09945 10.5 6 10.5C5.90054 10.5 5.80516 10.5395 5.73483 10.6098C5.66451 10.6802 5.625 10.7755 5.625 10.875V11.231C4.49522 11.1511 3.42205 10.7061 2.56732 9.96296L2.81836 9.71192C2.88751 9.64136 2.92602 9.54637 2.92552 9.44758C2.92502 9.34879 2.88555 9.25419 2.8157 9.18433C2.74584 9.11448 2.65124 9.07501 2.55245 9.07452C2.45366 9.07402 2.35867 9.11252 2.28811 9.18167L2.03707 9.43271C1.29395 8.57798 0.848881 7.50479 0.768995 6.375H1.125C1.22445 6.375 1.31984 6.3355 1.39016 6.26517C1.46049 6.19484 1.5 6.09946 1.5 6C1.5 5.90055 1.46049 5.80517 1.39016 5.73484C1.31984 5.66451 1.22445 5.625 1.125 5.625H0.768995C0.848868 4.49512 1.294 3.42185 2.03724 2.5671L2.2881 2.8176C2.35865 2.88674 2.45365 2.92525 2.55244 2.92475C2.65123 2.92425 2.74583 2.88479 2.81568 2.81493C2.88554 2.74508 2.925 2.65048 2.9255 2.55169C2.926 2.4529 2.88749 2.3579 2.81835 2.28735L2.56749 2.03685C3.42219 1.29383 4.4953 0.848844 5.625 0.769002V1.125C5.625 1.22446 5.66451 1.31984 5.73483 1.39017C5.80516 1.4605 5.90054 1.5 6 1.5C6.09945 1.5 6.19484 1.4605 6.26516 1.39017C6.33549 1.31984 6.375 1.22446 6.375 1.125V0.769002C7.50469 0.848852 8.5778 1.29384 9.43249 2.03687L9.18164 2.28737C9.14624 2.32206 9.11807 2.36342 9.09876 2.40906C9.07945 2.4547 9.06938 2.50372 9.06913 2.55328C9.06888 2.60284 9.07845 2.65195 9.0973 2.69779C9.11615 2.74362 9.1439 2.78527 9.17895 2.82031C9.21399 2.85536 9.25563 2.8831 9.30147 2.90195C9.3473 2.9208 9.39642 2.93038 9.44598 2.93013C9.49554 2.92988 9.54456 2.91981 9.5902 2.9005C9.63584 2.88118 9.6772 2.85302 9.71189 2.81762L9.96274 2.56712C10.706 3.42187 11.1511 4.49513 11.231 5.625H10.875C10.7755 5.625 10.6802 5.66451 10.6098 5.73484C10.5395 5.80517 10.5 5.90055 10.5 6C10.5 6.09946 10.5395 6.19484 10.6098 6.26517C10.6802 6.3355 10.7755 6.375 10.875 6.375ZM6.68994 5.11158C6.59471 5.0391 6.48835 4.98256 6.375 4.94417V3.375C6.375 3.27555 6.33549 3.18017 6.26516 3.10984C6.19484 3.03951 6.09945 3 6 3C5.90054 3 5.80516 3.03951 5.73483 3.10984C5.66451 3.18017 5.625 3.27555 5.625 3.375V4.96157C5.42391 5.02596 5.24565 5.14695 5.11157 5.31006C4.94355 5.5247 4.86 5.79345 4.87671 6.06551C4.89342 6.33757 5.00923 6.59408 5.20225 6.78654L4.57177 7.65454C4.54266 7.69435 4.52169 7.73952 4.51006 7.78744C4.49843 7.83537 4.49637 7.88512 4.504 7.93385C4.51164 7.98257 4.52881 8.02932 4.55453 8.07139C4.58026 8.11347 4.61403 8.15006 4.65392 8.17906C4.69381 8.20806 4.73904 8.22891 4.787 8.24041C4.83496 8.2519 4.88471 8.25382 4.93342 8.24606C4.98212 8.23829 5.02881 8.22099 5.07082 8.19515C5.11283 8.16931 5.14932 8.13543 5.17821 8.09546L5.895 7.10862C5.92983 7.11187 5.9625 7.12574 5.99775 7.12574C6.04526 7.12546 6.09271 7.12228 6.13983 7.11622C6.36064 7.08856 6.56829 6.99603 6.73649 6.85033C6.9047 6.70464 7.02592 6.51232 7.0848 6.29772C7.14368 6.08312 7.13759 5.85587 7.0673 5.64473C6.997 5.4336 6.86571 5.24805 6.68994 5.11158ZM6.29663 6.22998C6.25884 6.2789 6.20955 6.31772 6.15314 6.343C6.09674 6.36828 6.03497 6.37924 5.97331 6.37491C5.91165 6.37057 5.85201 6.35108 5.7997 6.31816C5.74739 6.28523 5.70401 6.2399 5.67343 6.18619C5.64285 6.13247 5.62601 6.07203 5.6244 6.01024C5.6228 5.94845 5.63647 5.88722 5.66422 5.83199C5.69197 5.77676 5.73293 5.72923 5.78346 5.69363C5.83399 5.65804 5.89253 5.63547 5.95388 5.62794C5.96941 5.62587 5.98507 5.62489 6.00075 5.625C6.07083 5.62523 6.13944 5.64506 6.19883 5.68226C6.25822 5.71946 6.30602 5.77254 6.33681 5.83549C6.3676 5.89844 6.38015 5.96875 6.37306 6.03847C6.36596 6.10819 6.33947 6.17453 6.29663 6.22998Z" fill="#141414"/>
</g>
<defs>
<clipPath id="clip0_28_631">
<rect width="24" height="24" fill="white"/>
</clipPath>
</defs>
</svg>
